<?xml version="1.0" standalone="no"?>
<!DOCTYPE svg PUBLIC "-//W3C//DTD SVG 1.1//EN" "http://www.w3.org/Graphics/SVG/1.1/DTD/svg11.dtd" >
<svg xmlns="http://www.w3.org/2000/svg">
<metadata></metadata>
<defs>
<font id="fzhupo-m04regular" horiz-adv-x="2048" vert-adv-y="2048" >
<font-face units-per-em="2048" ascent="1632" descent="-416" />
<missing-glyph horiz-adv-x="680" />
<glyph horiz-adv-x="0" vert-adv-y="0" />
<glyph horiz-adv-x="682" />
<glyph unicode=" "  horiz-adv-x="680" />
<glyph unicode="&#x09;" horiz-adv-x="680" />
<glyph unicode="&#xa0;" horiz-adv-x="680" />
<glyph unicode="!" horiz-adv-x="752" d="M152 216q16 208 224 232q208 -24 232 -232q-24 -208 -232 -216q-208 8 -224 216zM152 1264q0 232 224 240q216 -8 224 -240q-8 -112 -24 -280q-24 -160 -64 -352q-24 -120 -136 -112q-112 -8 -128 112q-56 224 -80 376t-16 256z" />
<glyph unicode="&#x22;" horiz-adv-x="984" d="M160 904v456q8 128 136 144q120 -16 136 -144v-456q-8 -144 -136 -144q-136 0 -136 144zM552 904v456q8 128 136 144q128 -8 136 -144v-456q-8 -144 -136 -144q-136 0 -136 144z" />
<glyph unicode="#" horiz-adv-x="1368" d="M160 496q0 88 104 96h104l32 240h-80q-96 0 -96 104q0 88 96 96h112l40 320q24 104 120 104q80 -8 88 -80q0 -56 -24 -200l-16 -144h184l40 320q8 96 112 104q88 -8 96 -80q0 -56 -24 -200l-24 -144h80q96 -8 104 -96q-16 -104 -104 -104h-104l-32 -240h80q88 -8 96 -96 q-8 -96 -96 -96h-112l-40 -320q-24 -88 -120 -88q-88 8 -88 56q0 64 24 208l16 144h-184l-40 -320q-16 -88 -112 -88q-96 8 -96 56q0 64 24 208l24 144h-80q-104 0 -104 96zM576 592h184l32 240h-184z" />
<glyph unicode="$" horiz-adv-x="1368" d="M72 328q8 152 168 168q64 0 152 -104q112 -120 224 -144v320q-552 120 -520 440q24 408 520 448v24q0 88 72 88q64 -8 72 -88v-24q464 -56 496 -312q-16 -152 -168 -152q-56 0 -136 64q-104 96 -192 120v-280q544 -128 536 -480q-24 -400 -536 -424v-112q0 -80 -72 -80 q-80 0 -72 80v112q-480 16 -544 336zM440 1072q0 -112 176 -144v256q-176 -24 -176 -112zM760 240q168 8 168 136q-8 120 -168 152v-288z" />
<glyph unicode="%" d="M104 984v96q0 368 352 376q344 -8 352 -376v-96q-16 -352 -352 -360q-336 8 -352 360zM352 1040q-16 -256 104 -240q112 -8 112 240t-112 248q-120 8 -104 -248zM568 0q0 24 24 80l640 1296q64 152 152 136q72 -16 96 -80q0 -32 -24 -88l-640 -1296q-80 -128 -152 -120 q-72 16 -96 72zM1240 336v96q0 368 352 376q344 -8 352 -376v-96q-16 -336 -352 -344q-344 8 -352 344zM1480 392q-8 -256 112 -248q112 -16 104 248q8 248 -104 240q-120 0 -112 -240z" />
<glyph unicode="&#x26;" horiz-adv-x="1664" d="M96 424q8 272 312 408q-128 112 -128 272q24 368 488 384q480 -24 512 -400q0 -232 -256 -384l144 -136q168 176 248 160q128 -24 144 -144q16 -96 -152 -248q104 -88 112 -184q-16 -152 -192 -168q-72 -8 -208 136q-176 -136 -512 -136q-504 8 -512 440zM504 416 q8 -136 152 -144q104 -8 224 80l-224 232q-168 -112 -152 -168zM648 1112q0 -88 128 -168q152 72 160 168q-8 104 -152 112q-136 -8 -136 -112z" />
<glyph unicode="'" horiz-adv-x="528" d="M128 904v456q8 128 136 144q120 -16 136 -144v-456q-8 -144 -136 -144q-136 0 -136 144z" />
<glyph unicode="(" horiz-adv-x="720" d="M104 560q0 288 120 672q72 288 216 272q168 -8 176 -168q0 -48 -40 -192q-88 -336 -80 -584q0 -240 72 -560q32 -144 32 -184q-8 -176 -168 -184q-160 -24 -256 376q-80 288 -72 552z" />
<glyph unicode=")" horiz-adv-x="720" d="M104 -208q0 56 32 200q72 192 88 568q-16 360 -80 576q-24 120 -24 184q0 176 176 184q144 24 248 -392q40 -144 56 -272q16 -120 16 -280q-8 -304 -120 -656q-80 -288 -216 -272q-168 16 -176 160z" />
<glyph unicode="*" horiz-adv-x="1136" d="M120 1144q0 120 112 128q16 0 40 -16h32l152 -64v168q-8 144 112 144q112 0 112 -144v-168l152 64h24q32 16 48 16q104 -8 112 -128q0 -80 -56 -88l-216 -64l88 -120l16 -32q64 -72 64 -104q-16 -96 -120 -104q-72 -16 -128 88l-96 136l-96 -136q-72 -104 -120 -88 q-112 8 -120 104q-16 32 72 136l96 120l-224 64q-64 8 -56 88z" />
<glyph unicode="+" horiz-adv-x="1224" d="M32 576q0 128 144 136h304v304q0 136 136 144q128 -8 136 -144v-304h296q136 -8 144 -136q-8 -128 -144 -128h-296v-304q-8 -144 -136 -144q-136 0 -136 144v304h-304q-144 0 -144 128z" />
<glyph unicode="," horiz-adv-x="680" d="M112 224q16 200 224 224q240 -24 248 -328q-16 -352 -360 -400q-96 8 -104 88q-8 88 120 112q120 32 120 120q-24 -16 -72 -16q-168 0 -176 200z" />
<glyph unicode="-" horiz-adv-x="1224" d="M32 576q0 128 144 136h872q136 -8 144 -136q-8 -128 -144 -128h-872q-144 0 -144 128z" />
<glyph unicode="." horiz-adv-x="680" d="M112 216q16 208 232 232q200 -24 224 -232q-16 -208 -224 -216q-216 8 -232 216z" />
<glyph unicode="/" horiz-adv-x="792" d="M32 104q0 32 40 152l16 48l376 1072q40 152 152 136q136 -24 152 -144q0 -40 -48 -160q-8 -24 -8 -40l-384 -1064q-32 -136 -144 -120q-152 8 -152 120z" />
<glyph unicode="0" horiz-adv-x="1368" d="M80 720q8 720 608 736q584 -16 600 -736q-8 -720 -600 -728q-616 0 -608 728zM496 712q-8 -440 192 -416q184 -24 184 416q0 424 -184 424q-200 8 -192 -424z" />
<glyph unicode="1" horiz-adv-x="1056" d="M72 1000q-24 136 200 160q152 24 240 160q88 144 192 136q152 0 160 -144v-1128q-8 -184 -208 -192q-208 8 -208 192v672h-224q-160 0 -152 144z" />
<glyph unicode="2" horiz-adv-x="1368" d="M96 168q-64 144 408 456l192 136q136 88 136 208q-8 160 -176 168q-128 0 -176 -144q-48 -152 -168 -144q-200 0 -200 200q40 384 552 408q560 -16 592 -464q0 -248 -272 -408l-368 -232v-8h488q168 -8 176 -168q0 -176 -176 -176h-832q-168 8 -176 168z" />
<glyph unicode="3" horiz-adv-x="1368" d="M88 328q8 192 192 200q104 0 160 -128q56 -120 176 -120q216 -16 208 192q0 120 -136 128q-192 16 -184 128q-8 144 168 144q136 0 144 136q-8 136 -192 144q-112 8 -176 -120q-64 -88 -144 -80q-176 0 -184 176q32 304 552 328q512 -24 544 -400q-8 -224 -176 -280v-8 q200 -72 208 -304q-24 -464 -624 -472q-496 8 -536 336z" />
<glyph unicode="4" horiz-adv-x="1368" d="M48 512q-8 104 128 256l424 512q160 208 280 192q232 -8 240 -224v-632q200 0 200 -160q0 -168 -200 -160v-104q0 -192 -200 -200q-192 8 -192 200v104h-488q-192 0 -192 216zM384 616h344v440h-8z" />
<glyph unicode="5" horiz-adv-x="1368" d="M112 264q8 152 200 168q72 0 144 -72q80 -64 168 -64q192 0 208 192q-24 184 -208 208q-56 0 -136 -40q-96 -40 -168 -40q-192 0 -192 168q0 40 16 160q16 112 56 312q24 184 232 176h552q176 -8 184 -168q-8 -168 -184 -168h-464l-40 -216q128 72 288 72 q472 -32 488 -456q-16 -496 -656 -504q-480 8 -488 272z" />
<glyph unicode="6" horiz-adv-x="1368" d="M72 696q8 744 664 760q448 -32 472 -264q-16 -168 -176 -176q-72 0 -168 72q-80 72 -136 72q-240 0 -232 -344q128 104 304 104q472 -24 496 -456q-24 -464 -584 -472q-632 8 -640 704zM520 464q8 -176 184 -184q160 8 176 184q-8 176 -176 184q-176 -16 -184 -184z" />
<glyph unicode="7" horiz-adv-x="1208" d="M0 1264q0 160 184 168h800q200 0 200 -184q16 -96 -184 -296q-232 -296 -288 -688q-32 -288 -248 -272q-168 8 -176 168q56 464 464 936h-568q-184 0 -184 168z" />
<glyph unicode="8" horiz-adv-x="1368" d="M80 440q-8 216 224 312q-184 88 -184 312q32 376 560 392q528 -16 568 -392q-8 -224 -184 -312q224 -96 224 -312q-16 -440 -608 -448q-592 8 -600 448zM496 448q0 -176 184 -176t192 176q-16 168 -192 184q-176 -16 -184 -184zM512 1008q0 -144 168 -144t176 144 q0 144 -176 152q-168 -8 -168 -152z" />
<glyph unicode="9" horiz-adv-x="1368" d="M72 968q24 464 584 488q624 -16 640 -728q-16 -728 -664 -736q-464 16 -472 248q0 152 176 168q64 0 160 -72q80 -64 144 -64q232 -8 232 344q-120 -112 -304 -104q-480 16 -496 456zM488 968q0 -184 176 -184q168 8 184 184q-24 168 -184 184q-160 -16 -176 -184z" />
<glyph unicode=":" horiz-adv-x="680" d="M112 216q16 208 232 232q200 -24 224 -232q-16 -208 -224 -216q-216 8 -232 216zM112 872q16 200 232 224q200 -24 224 -224q-24 -216 -224 -232q-216 16 -232 232z" />
<glyph unicode=";" horiz-adv-x="680" d="M112 224q16 200 224 224q240 -24 248 -328q-16 -352 -360 -400q-96 8 -104 88q-8 88 120 112q120 32 120 120q-24 -16 -72 -16q-168 0 -176 200zM112 872q16 200 232 224q200 -24 224 -224q-24 -216 -224 -232q-216 16 -232 232z" />
<glyph unicode="&#x3c;" horiz-adv-x="1224" d="M48 576q0 72 72 120l840 384q48 24 112 24q104 -8 112 -120q0 -88 -96 -128l-664 -280l664 -272q96 -48 96 -128q-8 -128 -112 -128q-48 -8 -112 32l-840 384q-72 32 -72 112z" />
<glyph unicode="=" horiz-adv-x="1224" d="M32 336q0 128 144 136h872q136 -8 144 -136q-8 -136 -144 -136h-872q-144 0 -144 136zM32 824q8 120 144 136h872q136 -8 144 -136q-8 -136 -144 -136h-872q-144 0 -144 136z" />
<glyph unicode="&#x3e;" horiz-adv-x="1224" d="M48 176q-16 80 96 128l656 272l-656 280q-112 40 -96 128q0 112 112 120q56 0 112 -24l832 -384q72 -40 80 -120q-8 -88 -80 -112l-832 -384q-72 -40 -112 -32q-112 0 -112 128z" />
<glyph unicode="?" horiz-adv-x="1208" d="M16 1152q72 336 552 360q528 -24 568 -416q0 -224 -288 -376q-128 -72 -144 -112q-48 -112 -184 -104q-168 0 -168 168q-8 152 192 240q176 80 160 176q0 112 -144 112q-112 -8 -184 -104q-80 -128 -176 -112q-184 0 -184 168zM312 216q16 208 232 232q208 -24 232 -232 q-24 -208 -232 -216q-216 8 -232 216z" />
<glyph unicode="@" horiz-adv-x="1632" d="M64 736q56 712 792 776q672 -48 720 -624q-24 -504 -520 -584q-112 0 -120 96h-8q-96 -104 -232 -96q-280 16 -288 344q24 456 400 504q152 0 256 -136l8 40q8 72 96 72q80 -8 88 -88q-8 -64 -48 -272q-32 -176 -32 -216q-8 -40 40 -40q160 32 176 320q-24 472 -544 496 q-528 -48 -568 -592q24 -552 584 -584q208 0 368 96q56 32 80 32q64 -8 72 -72q-104 -208 -520 -224q-752 48 -800 752zM640 696q0 -160 152 -160q192 8 208 216q-8 152 -160 160q-184 -16 -200 -216z" />
<glyph unicode="A" horiz-adv-x="1400" d="M16 160q0 56 48 208l24 72l312 872q64 192 224 192h152q152 0 224 -192l312 -872q8 -40 16 -72q56 -152 56 -208q-24 -160 -216 -168q-152 8 -184 96l-32 112h-496l-40 -112q-40 -88 -184 -96q-200 8 -216 168zM536 496h328l-160 536h-8z" />
<glyph unicode="B" horiz-adv-x="1592" d="M160 280v912v15q0 265 272 265h488q512 -8 520 -368q0 -256 -208 -304v-8q264 -56 272 -360q-24 -424 -552 -432h-520q-272 0 -272 265v15zM624 328h232q184 0 192 144q-8 136 -192 144h-232v-288zM624 872h224q128 0 144 136q-8 128 -144 136h-224v-272z" />
<glyph unicode="C" horiz-adv-x="1512" d="M88 736q32 720 760 776q544 -40 616 -416q-16 -200 -224 -208q-11 -2 -22 -2q-97 0 -162 130q-80 128 -232 128q-256 -24 -264 -408q0 -392 288 -400q10 -1 19 -1l205 153q64 96 176 96q200 -16 216 -200q-48 -360 -616 -400q-744 24 -760 752z" />
<glyph unicode="D" horiz-adv-x="1592" d="M144 280v912v16q0 264 250 264h14h400q672 -24 704 -736q-32 -720 -704 -736h-400q-264 0 -264 264v16zM600 368h104q14 -1 28 -1q317 0 316 352v17v17q0 352 -329 351h-15h-104v-736z" />
<glyph unicode="E" horiz-adv-x="1472" d="M168 280v912v15q0 265 272 265h744q200 -8 208 -168q-8 -176 -208 -176h-544v-208h440q192 -8 200 -168q-8 -176 -200 -176h-440v-232h568q200 -8 208 -168q-8 -176 -208 -176h-768q-272 0 -272 265v15z" />
<glyph unicode="F" horiz-adv-x="1360" d="M168 224v968v15q0 265 272 265h672q216 -8 224 -184q-8 -184 -224 -184h-472v-232h424q152 -8 168 -176q-16 -168 -168 -176h-424v-296q-8 -224 -240 -232q-232 8 -232 232z" />
<glyph unicode="G" horiz-adv-x="1704" d="M104 736q24 712 744 776q536 -16 608 -352q-24 -200 -232 -208q-72 0 -152 80q-96 112 -208 112q-288 -16 -288 -416v-21q0 -387 292 -387h12h17q193 0 247 176h-112q-136 8 -144 144q0 160 160 168h304q200 -16 216 -224v-424q0 -176 -160 -176q-152 8 -160 128v40 q-112 -152 -424 -168q-712 16 -720 752z" />
<glyph unicode="H" horiz-adv-x="1704" d="M152 224v1024q0 240 232 256q232 -8 240 -256v-280h456v280q8 240 240 256q224 -16 232 -256v-1024q-8 -224 -232 -232q-232 8 -240 232v344h-456v-344q-8 -224 -240 -232q-232 8 -232 232z" />
<glyph unicode="I" horiz-adv-x="792" d="M160 224v1024q0 248 240 256q224 -16 232 -256v-1024q-8 -224 -232 -232q-240 8 -240 232z" />
<glyph unicode="J" horiz-adv-x="1360" d="M64 400q0 240 224 248q184 -16 200 -192q0 -136 112 -136q7 -1 14 -1q98 0 98 225v704q8 240 240 256q224 -16 232 -256v-800q-24 -448 -568 -464q-528 16 -552 416z" />
<glyph unicode="K" horiz-adv-x="1552" d="M168 224v1024q0 240 232 256q232 -8 240 -256v-288l368 400q122 144 207 144h9q176 -16 208 -200q1 -7 1 -13q0 -81 -89 -155l-224 -248l360 -560q48 -80 48 -136q-24 -192 -240 -200q-136 0 -192 88l-320 496l-136 -144v-208q-8 -224 -240 -232q-232 8 -232 232z" />
<glyph unicode="L" horiz-adv-x="1360" d="M168 280v968q0 240 232 256q232 -8 240 -256v-864h496q192 -16 200 -192q-8 -184 -200 -192h-696q-272 0 -272 265v15z" />
<glyph unicode="M" horiz-adv-x="1928" d="M144 184v1064q0 248 240 256h136h15q187 0 233 -200l200 -728l192 728q39 200 240 200h16h128q240 -8 248 -256v-1064q0 -192 -208 -192q-216 8 -216 192v720l-216 -800q-22 -112 -165 -112h-19h-20q-149 0 -164 112l-216 800h-8v-720q0 -192 -208 -192t-208 179v13z" />
<glyph unicode="N" horiz-adv-x="1704" d="M152 208v1048q0 248 272 256q160 0 256 -144l408 -712h8v616q8 224 232 240q208 -16 224 -240v-1080q-8 -200 -264 -208q-15 -1 -29 -1q-163 0 -251 169l-392 640h-8v-584q-8 -216 -224 -224q-232 8 -232 224z" />
<glyph unicode="O" horiz-adv-x="1696" d="M88 736q32 720 760 776q728 -56 768 -776q-24 -728 -768 -752q-744 24 -760 752zM560 736q0 -392 288 -400q288 0 296 400q-16 392 -296 408q-280 -16 -288 -408z" />
<glyph unicode="P" horiz-adv-x="1592" d="M168 216v976v15q0 265 272 265h424q640 0 640 -504q0 -512 -621 -512h-19h-240v-240q-8 -216 -224 -224q-232 8 -232 224zM624 816h264q152 8 160 144q-8 152 -184 160h-240v-304z" />
<glyph unicode="Q" horiz-adv-x="1696" d="M88 736q32 720 760 776q728 -56 768 -776q-8 -320 -168 -512l56 -56q88 -96 88 -144q-24 -120 -160 -136q-64 0 -144 80l-80 72q-168 -48 -360 -56q-744 24 -760 752zM560 736q0 -392 288 -400q11 -3 22 -3q23 0 50 11l-40 40q-80 72 -80 136q8 128 152 144q64 0 128 -56 l40 -40q24 72 24 168q-16 392 -296 408q-280 -16 -288 -408z" />
<glyph unicode="R" horiz-adv-x="1592" d="M144 216v976q-1 14 -1 28q0 252 273 252h16h520q496 -16 520 -416q-8 -296 -296 -352q248 -24 272 -224l16 -120q0 -40 8 -80q16 -88 16 -128q-16 -152 -216 -160q-240 0 -256 184l-24 192q-24 160 -208 160h-184v-312q-8 -216 -232 -224q-224 8 -224 224zM600 832h232 h20q180 0 180 133v11q0 144 -200 144h-232v-288z" />
<glyph unicode="S" horiz-adv-x="1472" d="M104 1032q24 464 576 480q608 -24 624 -312q-16 -184 -208 -192q-72 0 -152 72q-112 112 -240 112q-152 -8 -152 -104q-1 -7 -1 -13q0 -70 161 -107l240 -64q424 -112 424 -440q-24 -464 -616 -480q-600 16 -648 336q8 176 200 192q72 0 168 -96q113 -120 233 -120h15 q176 0 184 120q0 80 -128 112l-312 88q-368 104 -368 416z" />
<glyph unicode="T" horiz-adv-x="1472" d="M24 1288q0 176 208 184h1008q208 -8 216 -184q-8 -192 -200 -192h-280v-872q-8 -224 -240 -232q-232 8 -232 232v872h-288q-192 0 -192 192z" />
<glyph unicode="U" horiz-adv-x="1696" d="M144 568v680q0 240 232 256q232 -8 240 -256v-672q0 -256 232 -256t240 256v672q0 248 240 256q224 -16 232 -256v-680q-8 -576 -712 -584q-704 8 -704 584z" />
<glyph unicode="V" horiz-adv-x="1472" d="M72 1304q16 176 224 200q176 -8 224 -168l216 -848h8l216 848q40 160 224 168q200 -24 224 -200q0 -72 -32 -152l-344 -992q-52 -169 -259 -169q-18 0 -37 1q-20 -1 -38 -1q-213 0 -250 169l-344 992q-33 67 -33 128q0 12 1 24z" />
<glyph unicode="W" horiz-adv-x="1968" d="M48 1296q8 192 216 208q184 -8 224 -192l128 -800l128 760q31 232 227 232h13h13q196 0 227 -232l128 -760l136 800q16 184 224 192q192 -16 208 -208q0 -48 -32 -184q-8 -40 -16 -88l-208 -840q-48 -192 -248 -192h-72q-200 0 -224 200l-136 680l-128 -680 q-48 -200 -232 -200h-72q-208 0 -248 192l-200 840q-56 176 -56 272z" />
<glyph unicode="X" horiz-adv-x="1288" d="M32 184q0 72 56 136l288 440l-264 400q-48 64 -48 128q16 192 224 216q128 -8 184 -104l176 -312l168 312q56 96 192 104q192 -24 216 -216q0 -64 -48 -128l-256 -400l288 -440q48 -80 48 -136q-8 -184 -224 -192q-136 0 -208 112l-176 320l-184 -320q-80 -112 -208 -112 q-224 8 -224 192z" />
<glyph unicode="Y" horiz-adv-x="1360" d="M48 1280q24 200 224 224q152 -8 216 -144l192 -400l192 400q72 136 216 144q208 -24 232 -224q-8 -72 -64 -160l-336 -592v-304q-16 -224 -240 -232q-232 8 -232 232v304l-344 592q-57 78 -57 144q0 8 1 16z" />
<glyph unicode="Z" horiz-adv-x="1472" d="M48 208q-2 10 -2 20q0 91 130 220l592 656h-464q-224 0 -224 184q0 176 224 184h896q200 -8 208 -208q0 -96 -88 -192l-632 -704h528q216 -8 216 -184q0 -184 -216 -184h-936q-224 0 -232 208z" />
<glyph unicode="[" horiz-adv-x="792" d="M128 -144v1424q-8 192 240 192h216q184 -8 192 -144q-8 -152 -152 -152h-136v-1224h136q144 0 152 -144q-8 -144 -192 -152h-216q-240 0 -240 200z" />
<glyph unicode="\" horiz-adv-x="792" d="M32 1368q0 128 152 144q112 16 144 -136l384 -1072q0 -24 8 -48q40 -96 48 -152q-8 -104 -152 -120q-120 -16 -152 120l-376 1064q-8 8 -16 40q-40 96 -40 160z" />
<glyph unicode="]" horiz-adv-x="792" d="M24 -192q0 144 152 144h128v1224h-128q-152 0 -152 152q0 136 184 144h224q232 0 232 -192v-1424q-8 -192 -232 -200h-224q-184 8 -184 152z" />
<glyph unicode="^" horiz-adv-x="568" d="M-72 1296q-8 48 152 200q144 120 208 104q40 16 200 -104q176 -136 168 -200q-16 -120 -112 -120q-48 -24 -256 168q-208 -184 -256 -168q-88 0 -104 120z" />
<glyph unicode="_" horiz-adv-x="1024" d="M-40 -192q8 56 40 56h1024q48 0 56 -56q-8 -48 -56 -48h-1024q-32 8 -40 48z" />
<glyph unicode="`" horiz-adv-x="568" d="M-24 1480q16 104 120 120q48 0 128 -64l176 -144q48 -56 56 -112q-16 -112 -128 -128q-56 -16 -136 72l-168 144q-40 40 -48 112z" />
<glyph unicode="a" horiz-adv-x="1360" d="M88 304v9q0 296 544 327q217 7 217 92q0 6 -1 12q0 104 -168 104q-104 0 -216 -80q-88 -64 -152 -64q-136 0 -136 136q32 232 520 256q552 -16 560 -312v-472q0 -40 8 -112q8 -56 8 -80q-8 -120 -200 -128q-192 0 -208 152q-112 -144 -376 -152q-400 8 -400 312zM520 312 q8 -96 128 -104q176 8 200 152v120q-40 -40 -168 -64q-64 0 -104 -16q-56 -24 -56 -88z" />
<glyph unicode="b" horiz-adv-x="1360" d="M104 176v1112q0 216 208 216q192 0 200 -216v-352h8q88 152 296 160q416 -24 464 -560q-24 -536 -480 -544q-264 8 -320 176q-8 -168 -184 -176q-192 0 -192 170v14zM504 536q0 -256 176 -256t184 248q-8 232 -192 240q-168 -16 -168 -232z" />
<glyph unicode="c" horiz-adv-x="1248" d="M80 536q16 536 600 560q448 -24 488 -288q-8 -152 -152 -152q-48 0 -128 56q-96 88 -176 88q-208 -8 -208 -256q0 -272 192 -272q72 0 176 72q88 72 144 72q144 -16 160 -152q-64 -264 -496 -272q-592 8 -600 544z" />
<glyph unicode="d" horiz-adv-x="1360" d="M80 536q40 536 472 560q184 -8 296 -160v352q0 216 208 216q192 0 200 -216v-1112q0 -184 -184 -184q-184 8 -184 176h-8q-56 -168 -320 -176q-464 8 -480 544zM504 528q0 -248 184 -248q160 0 168 256q-8 216 -160 232q-192 -8 -192 -240z" />
<glyph unicode="e" horiz-adv-x="1360" d="M80 536q16 536 600 560q544 -24 616 -480q0 -176 -176 -176h-16h-600q16 -224 224 -224q72 0 200 72q112 64 176 64q112 -16 128 -144q-24 -208 -552 -216q-592 8 -600 544zM504 648h392q-8 192 -192 200q-192 -8 -200 -200z" />
<glyph unicode="f" horiz-adv-x="872" d="M0 952q0 120 128 120h80v80q0 360 368 360q288 -8 296 -160v-11q0 -141 -188 -141h-20q-48 -8 -48 -48v-80h112q120 0 128 -120q-8 -128 -115 -128h-13h-112v-640q0 -192 -200 -192q-208 0 -208 179v13v640h-80h-14q-114 0 -114 128z" />
<glyph unicode="g" horiz-adv-x="1360" d="M96 584q24 480 464 512q264 -24 320 -192h8q0 184 184 192q184 0 184 -200v-864q0 -440 -600 -440q-464 8 -504 248q8 144 152 152q40 0 128 -56q112 -72 192 -72q224 0 224 194v14v144q-72 -144 -296 -144q-448 32 -456 512zM512 576v-19q0 -205 164 -205h12 q168 0 176 224q-8 216 -176 224q-176 0 -176 -206v-18z" />
<glyph unicode="h" horiz-adv-x="1360" d="M104 184v1112q0 192 208 208q208 -8 216 -208v-368q112 168 320 168q400 -8 408 -408v-504q-8 -184 -208 -192q-208 8 -208 192v400q-8 176 -160 184q-152 -8 -152 -208v-376q-8 -184 -216 -192q-208 8 -208 192z" />
<glyph unicode="i" horiz-adv-x="640" d="M112 184v704q0 200 208 208q208 -8 216 -208v-704q-8 -184 -216 -192q-208 8 -208 192zM120 1376q16 184 200 200q184 -16 200 -200q-16 -184 -200 -200q-184 16 -200 200z" />
<glyph unicode="j" horiz-adv-x="680" d="M-16 -216v14q0 98 112 106q56 16 56 32v952q0 200 208 208q200 -8 208 -208v-944q-8 -320 -368 -328q-216 0 -216 168zM160 1376q16 184 200 200q184 -16 200 -200q-16 -184 -200 -200q-184 16 -200 200z" />
<glyph unicode="k" horiz-adv-x="1208" d="M104 184v1104q0 216 208 216q192 0 200 -216v-568h8l232 288q64 88 168 88q168 -24 184 -176q-8 -80 -80 -144l-136 -136l208 -288q80 -128 80 -192q-16 -160 -216 -168q-15 -3 -29 -3q-118 0 -211 179l-112 200l-96 -88v-96q0 -192 -200 -192q-208 0 -208 179v13z" />
<glyph unicode="l" horiz-adv-x="640" d="M112 184v1112q0 192 208 208q208 -8 216 -208v-1112q-8 -184 -216 -192q-208 8 -208 192z" />
<glyph unicode="m" d="M112 184v712v15q0 185 200 185q168 0 192 -200q104 192 352 200q256 -16 312 -208q128 208 360 208q392 -8 408 -408v-504q-8 -184 -208 -192q-216 8 -216 192v400q0 184 -136 184q-136 -24 -144 -192v-392q-8 -184 -208 -192q-208 8 -208 192v400q0 184 -144 184 q-136 -16 -136 -192v-392q-8 -184 -216 -192q-208 8 -208 192z" />
<glyph unicode="n" horiz-adv-x="1360" d="M104 184v712v15q0 185 200 185q168 0 192 -200q104 192 352 200q400 -8 408 -408v-504q-8 -184 -208 -192q-208 8 -208 192v400q-8 176 -160 184q-152 -8 -152 -208v-376q-8 -184 -216 -192q-208 8 -208 192z" />
<glyph unicode="o" horiz-adv-x="1360" d="M80 536q16 536 600 560q576 -24 600 -560q-16 -536 -600 -544q-592 8 -600 544zM504 528q0 -272 166 -272h10q176 0 184 272q-8 280 -184 288q-176 -8 -176 -288z" />
<glyph unicode="p" horiz-adv-x="1360" d="M104 -200v1096q0 200 192 200q176 -8 184 -192q56 176 320 192q456 -24 480 -560q-48 -536 -464 -544q-216 8 -296 144h-8v-336q-8 -208 -200 -208q-208 0 -208 208zM504 536q0 -224 168 -232q184 0 192 240q-8 240 -184 248q-176 -8 -176 -256z" />
<glyph unicode="q" horiz-adv-x="1360" d="M80 536q16 536 480 560q264 -24 320 -192h8q0 184 184 192q184 0 184 -200v-1096q-8 -208 -200 -208q-208 0 -208 208v336q-96 -136 -296 -144q-432 8 -472 544zM504 544q0 -240 192 -240q152 8 160 232q-8 248 -168 256q-184 -8 -184 -248z" />
<glyph unicode="r" horiz-adv-x="984" d="M104 184v704q0 192 192 208q176 -8 184 -216v-80h8q104 296 272 296q160 -8 176 -192q-8 -152 -120 -192l-112 -24q-177 -37 -177 -190q0 -13 1 -26v-288q-8 -184 -216 -192q-208 8 -208 192z" />
<glyph unicode="s" horiz-adv-x="1208" d="M56 232q8 112 152 128q48 0 136 -64q120 -88 240 -88q128 0 136 80q0 72 -136 104l-128 24q-393 69 -393 316q0 10 1 20q16 336 536 344q496 -16 512 -232q-16 -120 -136 -128q-72 0 -160 56q-120 72 -224 72q-120 0 -120 -72q-3 -9 -3 -17q0 -51 131 -71l184 -40 q368 -80 368 -320q-16 -344 -576 -352q-512 8 -520 240z" />
<glyph unicode="t" horiz-adv-x="872" d="M0 952q0 120 128 120h80v136q0 208 208 208q192 0 200 -208v-136h128q120 0 128 -120q-8 -128 -115 -128h-13h-128v-464v-32q0 -48 48 -48q208 0 208 -134v-10v-7q0 -137 -296 -137q-368 0 -368 336v496h-80h-14q-114 0 -114 128z" />
<glyph unicode="u" horiz-adv-x="1360" d="M104 384v504q0 200 208 208q208 -8 216 -208v-400v-17q0 -167 152 -167t160 208v376q0 200 208 208q200 -8 208 -208v-712q0 -184 -200 -184q-184 0 -184 184h-8q-112 -184 -344 -184q-416 8 -416 392z" />
<glyph unicode="v" horiz-adv-x="1136" d="M32 920q0 168 192 176q12 1 23 1q148 0 185 -193l144 -544l136 544q31 192 187 192h13q184 -8 192 -176q0 -96 -40 -192l-216 -608q-36 -130 -234 -130q-22 0 -46 2q-24 -2 -46 -2q-197 0 -226 130l-216 608q-32 64 -40 104q-11 32 -11 60q0 15 3 28z" />
<glyph unicode="w" horiz-adv-x="1816" d="M48 920q8 160 192 176q152 0 184 -136l144 -600l112 536q15 201 203 201q14 0 29 -1q19 2 36 2q159 0 188 -202l120 -536h8l128 600q32 136 184 136q184 -16 200 -176q-8 -48 -32 -144q-8 -24 -8 -40l-184 -568q-50 -179 -208 -179q-19 0 -40 3q-27 -2 -52 -2 q-215 0 -244 186l-96 448h-8l-96 -448q-36 -186 -239 -186q-23 0 -49 2q-22 -3 -43 -3q-170 0 -205 179l-184 568q-41 96 -41 163q0 11 1 21z" />
<glyph unicode="x" horiz-adv-x="1056" d="M48 152q-1 6 -1 12q0 62 73 164l152 232l-152 224q-56 64 -56 136q16 152 200 176h13q96 0 163 -112l88 -184l96 184q48 112 176 112q168 -24 192 -176q0 -72 -48 -136l-152 -224l152 -232q72 -112 72 -176q-16 -152 -192 -160q-9 -1 -17 -1q-115 0 -167 105l-112 208 l-104 -208q-67 -105 -176 -105q-8 0 -16 1q-176 8 -184 160z" />
<glyph unicode="y" horiz-adv-x="1136" d="M32 920q16 160 208 176q136 0 184 -152l152 -600l128 512q46 240 191 240h9q192 -16 200 -176q-8 -64 -80 -272l-248 -704q-112 -328 -448 -328q-256 8 -256 176q0 128 168 128q96 8 104 48q0 24 -16 48v24l-224 640q-40 88 -56 152q-18 42 -18 70q0 10 2 18z" />
<glyph unicode="z" horiz-adv-x="1168" d="M56 152q-1 7 -1 14q0 89 97 170l440 440h-328h-16q-144 0 -144 131v13q-1 12 -1 22q0 130 177 130h672q144 -8 152 -184q0 -88 -72 -152l-440 -440h368q160 0 160 -152q0 -144 -160 -144h-760q-136 0 -144 152z" />
<glyph unicode="{" horiz-adv-x="792" d="M32 560q0 88 96 96q96 -16 96 136v416q-16 272 352 264h152q80 -8 88 -96q-8 -96 -88 -96h-56q-88 0 -88 -120v-392q-8 -200 -224 -208q216 -16 224 -208v-376q-8 -120 88 -120h56q80 0 88 -96q-8 -96 -88 -104h-152q-368 0 -352 272v400q0 144 -96 136q-96 0 -96 96z " />
<glyph unicode="|" horiz-adv-x="448" d="M80 136v1200q0 168 144 176q152 -8 152 -176v-1200q0 -152 -152 -152q-144 0 -144 152z" />
<glyph unicode="}" horiz-adv-x="792" d="M-8 -240q8 96 80 96h48q88 0 88 120v376q0 192 224 208q-224 8 -224 208v392q0 120 -88 120h-48q-72 0 -80 96q8 96 80 96h152q352 8 344 -264v-416q-8 -152 96 -136q96 -8 104 -96q-8 -96 -104 -96q-104 8 -96 -136v-400q8 -272 -344 -272h-152q-72 0 -80 104z" />
<glyph unicode="~" horiz-adv-x="1224" d="M80 504q24 256 296 280q88 0 280 -88q128 -48 176 -48q56 0 120 64q56 56 104 56q80 -8 88 -112q-32 -264 -288 -280q-104 0 -288 80q-128 56 -168 56q-64 0 -136 -72q-56 -48 -88 -48q-96 0 -96 112z" />
<glyph unicode="&#xa4;" d="M504 312q0 32 40 64l40 48q-80 128 -80 288q0 168 80 288l-40 48q-48 32 -40 72q8 88 112 104q40 0 80 -32l40 -40q120 80 288 88q160 -8 288 -88l40 40q32 32 80 32q96 -16 112 -104q0 -40 -40 -72l-40 -48q72 -120 80 -288q-8 -160 -80 -288l40 -48q32 -32 40 -64 q-16 -96 -112 -104q-48 0 -80 24l-40 48q-128 -88 -288 -88q-168 0 -288 88l-40 -48q-40 -24 -80 -24q-104 8 -112 104zM760 712q24 -240 264 -264q240 24 264 264q-24 240 -264 264q-248 -24 -264 -264z" />
<glyph unicode="&#xa7;" d="M488 576q0 208 216 296q-136 80 -136 280q8 344 440 360q424 -32 464 -288q-8 -136 -144 -136q-64 0 -144 80q-88 96 -160 96q-136 0 -136 -104q-8 -72 120 -120l256 -112q288 -120 288 -360q0 -192 -208 -288q128 -88 136 -280q-16 -328 -448 -344q-440 24 -472 288 q8 104 144 120q56 0 136 -64q88 -96 176 -96q144 0 144 96q0 56 -128 112l-248 104q-304 120 -296 360zM776 624q-8 -72 72 -96l312 -136q112 56 112 128q0 48 -80 96l-304 136q-120 -64 -112 -128z" />
<glyph unicode="&#xa8;" d="M592 1376q16 176 184 192q168 -24 192 -192q-16 -168 -192 -184q-176 8 -184 184zM1080 1376q16 168 192 192q160 -16 184 -192q-16 -176 -184 -184q-184 16 -192 184z" />
<glyph unicode="&#xad;" horiz-adv-x="1224" d="M32 576q0 128 144 136h872q136 -8 144 -136q-8 -128 -144 -128h-872q-144 0 -144 128z" />
<glyph unicode="&#xb0;" d="M96 1136q24 288 312 320q288 -32 320 -320q-32 -288 -320 -312q-288 24 -312 312zM264 1136q8 -136 144 -144q128 8 144 144q-16 136 -144 152q-136 -16 -144 -152z" />
<glyph unicode="&#xb1;" d="M448 136q0 128 136 136h880q128 -8 136 -136q-8 -136 -136 -136h-880q-136 0 -136 136zM448 744q0 128 136 136h304v136q0 136 136 144q128 -8 136 -144v-136h304q128 -8 136 -136q-8 -136 -136 -136h-304v-136q-8 -144 -136 -144q-136 0 -136 144v136h-304 q-136 0 -136 136z" />
<glyph unicode="&#xb7;" d="M728 720q24 280 304 296q272 -16 288 -296q-16 -288 -288 -296q-280 8 -304 296z" />
<glyph unicode="&#xd7;" d="M520 216q0 40 40 80l280 280l-280 288q-40 24 -40 72q16 120 136 144q48 0 88 -32l280 -288l280 288q32 32 88 32q112 -24 136 -144q-8 -48 -40 -72l-280 -288l280 -280q32 -40 40 -80q-24 -128 -144 -144q-32 0 -72 24q-8 8 -8 16l-280 280l-280 -280l-16 -16 q-40 -32 -64 -24q-128 16 -144 144z" />
<glyph unicode="&#xe0;" d="M432 536q40 536 472 560q184 -8 296 -160l8 24q0 208 200 208t208 -208l-8 -784q0 -184 -184 -184q-184 8 -184 176h-8q-56 -168 -320 -176q-464 8 -480 544zM712 1480q8 96 128 120q48 0 136 -64l168 -144q48 -56 56 -112q-16 -112 -128 -128q-56 -16 -136 72l-168 144 q-64 40 -56 112zM856 528q0 -248 184 -248q160 0 168 256q-8 216 -160 232q-192 -8 -192 -240z" />
<glyph unicode="&#xe1;" d="M432 536q40 536 472 560q184 -8 296 -160l8 24q0 208 200 208t208 -208l-8 -784q0 -184 -184 -184q-184 8 -184 176h-8q-56 -168 -320 -176q-464 8 -480 544zM856 528q0 -248 184 -248q160 0 168 256q-8 216 -160 232q-192 -8 -192 -240zM864 1280q-8 56 56 112l168 144 q80 64 136 64q112 -24 128 -120q-8 -72 -56 -112l-168 -144q-88 -88 -136 -72q-120 8 -128 128z" />
<glyph unicode="&#xe8;" d="M416 536q16 536 600 560q544 -24 616 -480q0 -184 -200 -176h-592q16 -224 224 -224q72 0 200 72q104 64 168 64q120 -16 136 -144q-24 -208 -552 -216q-592 8 -600 544zM696 1480q8 96 128 120q48 0 136 -64l168 -144q56 -56 56 -112q-16 -112 -128 -128 q-56 -16 -136 72l-168 144q-64 40 -56 112zM840 648h392q-8 192 -192 200q-200 -8 -200 -200z" />
<glyph unicode="&#xe9;" d="M416 536q16 536 600 560q544 -24 616 -480q0 -184 -200 -176h-592q16 -224 224 -224q72 0 200 72q104 64 168 64q120 -16 136 -144q-24 -208 -552 -216q-592 8 -600 544zM840 648h392q-8 192 -192 200q-200 -8 -200 -200zM848 1280q-8 56 56 112l168 144q80 64 136 64 q112 -24 128 -120q0 -72 -56 -112l-168 -144q-88 -88 -136 -72q-120 16 -128 128z" />
<glyph unicode="&#xea;" d="M416 536q16 536 600 560q544 -24 616 -480q0 -184 -200 -176h-592q16 -224 224 -224q72 0 200 72q104 64 168 64q120 -16 136 -144q-24 -208 -552 -216q-592 8 -600 544zM648 1296q-16 64 168 200q136 120 200 104q56 16 200 -104q176 -136 168 -200q-16 -120 -112 -120 q-48 -24 -256 168q-216 -192 -256 -168q-104 0 -112 120zM840 648h392q-8 192 -192 200q-200 -8 -200 -200z" />
<glyph unicode="&#xec;" d="M760 1480q8 96 128 120q48 0 136 -64l168 -144q56 -56 56 -112q-16 -112 -128 -128q-56 -16 -136 72l-168 144q-64 40 -56 112zM872 184v704q0 200 208 208q200 -8 208 -208v-704q-8 -184 -208 -192q-208 8 -208 192z" />
<glyph unicode="&#xed;" d="M760 184v704q0 200 208 208q200 -8 208 -208v-704q-8 -184 -208 -192q-208 8 -208 192zM800 1280q-8 56 56 112l168 144q80 64 136 64q112 -24 128 -120q0 -72 -56 -112l-168 -144q-88 -88 -136 -72q-120 16 -128 128z" />
<glyph unicode="&#xf2;" d="M424 536q16 536 600 560q576 -24 600 -560q-16 -536 -600 -544q-592 8 -600 544zM704 1480q8 96 128 120q48 0 136 -64l168 -144q56 -56 56 -112q-16 -112 -128 -128q-56 -16 -136 72l-168 144q-64 40 -56 112zM848 528q0 -280 176 -272q168 -8 176 272q-8 280 -176 288 q-176 -8 -176 -288z" />
<glyph unicode="&#xf3;" d="M424 536q16 536 600 560q576 -24 600 -560q-16 -536 -600 -544q-592 8 -600 544zM848 528q0 -280 176 -272q168 -8 176 272q-8 280 -176 288q-176 -8 -176 -288zM856 1280q-8 56 56 112l168 144q80 64 136 64q112 -24 128 -120q0 -72 -56 -112l-168 -144 q-88 -88 -136 -72q-120 16 -128 128z" />
<glyph unicode="&#xf7;" d="M448 576q0 128 136 136h880q128 -8 136 -136q-8 -128 -136 -128h-880q-136 0 -136 128zM832 144q8 176 192 192q176 -16 192 -192q-16 -152 -192 -176q-184 24 -192 176zM832 1008q16 176 192 200q168 -24 192 -200q-24 -176 -192 -192q-176 16 -192 192z" />
<glyph unicode="&#xf9;" d="M448 384v504q0 200 208 208q208 -8 216 -208v-400q-8 -184 152 -184q144 0 152 208v376q0 200 216 208q200 -8 208 -208v-712q0 -184 -200 -184q-176 0 -192 184q-112 -184 -352 -184q-408 8 -408 392zM704 1480q8 96 128 120q48 0 136 -64l168 -144q56 -56 56 -112 q-16 -112 -128 -128q-56 -16 -136 72l-168 144q-64 40 -56 112z" />
<glyph unicode="&#xfa;" d="M448 384v504q0 200 208 208q208 -8 216 -208v-400q-8 -184 152 -184q144 0 152 208v376q0 200 216 208q200 -8 208 -208v-712q0 -184 -200 -184q-176 0 -192 184q-112 -184 -352 -184q-408 8 -408 392zM856 1280q-8 56 56 112l168 144q80 64 136 64q112 -24 128 -120 q0 -72 -56 -112l-168 -144q-88 -88 -136 -72q-120 16 -128 128z" />
<glyph unicode="&#xfc;" d="M448 384v504q0 200 208 208q208 -8 216 -208v-400q-8 -184 152 -184q144 0 152 208v376q0 200 216 208q200 -8 208 -208v-712q0 -184 -200 -184q-176 0 -192 184q-112 -184 -352 -184q-408 8 -408 392zM592 1376q16 176 184 192q168 -24 192 -192q-16 -168 -192 -184 q-176 8 -184 184zM1080 1376q16 168 192 192q160 -16 184 -192q-16 -176 -184 -184q-184 16 -192 184z" />
<glyph unicode="&#x2000;" horiz-adv-x="841" vert-adv-y="0" />
<glyph unicode="&#x2001;" horiz-adv-x="1682" vert-adv-y="0" />
<glyph unicode="&#x2002;" horiz-adv-x="841" vert-adv-y="0" />
<glyph unicode="&#x2003;" horiz-adv-x="1682" vert-adv-y="0" />
<glyph unicode="&#x2004;" horiz-adv-x="560" vert-adv-y="0" />
<glyph unicode="&#x2005;" horiz-adv-x="420" vert-adv-y="0" />
<glyph unicode="&#x2006;" horiz-adv-x="280" vert-adv-y="0" />
<glyph unicode="&#x2007;" horiz-adv-x="280" vert-adv-y="0" />
<glyph unicode="&#x2008;" horiz-adv-x="210" vert-adv-y="0" />
<glyph unicode="&#x2009;" horiz-adv-x="336" vert-adv-y="0" />
<glyph unicode="&#x200a;" horiz-adv-x="93" vert-adv-y="0" />
<glyph unicode="&#x2010;" horiz-adv-x="1224" d="M32 576q0 128 144 136h872q136 -8 144 -136q-8 -128 -144 -128h-872q-144 0 -144 128z" />
<glyph unicode="&#x2011;" horiz-adv-x="1224" d="M32 576q0 128 144 136h872q136 -8 144 -136q-8 -128 -144 -128h-872q-144 0 -144 128z" />
<glyph unicode="&#x2012;" horiz-adv-x="1224" d="M32 576q0 128 144 136h872q136 -8 144 -136q-8 -128 -144 -128h-872q-144 0 -144 128z" />
<glyph unicode="&#x2013;" d="M632 688h784v64h-784v-64z" />
<glyph unicode="&#x2014;" d="M16 688q0 176 112 200h1800q104 -24 112 -192q-8 -176 -112 -192h-1800q-112 16 -112 184z" />
<glyph unicode="&#x2018;" d="M1320 1240q24 176 160 384q120 104 176 -48l-32 -64q-32 -64 16 -88h16q128 -96 96 -272q-48 -152 -208 -152q-224 8 -224 240z" />
<glyph unicode="&#x2019;" d="M288 1496q56 160 224 168q216 -16 224 -240q-16 -136 -160 -392q-136 -96 -176 56l32 64q24 56 -32 80q-8 0 -8 8q-136 80 -104 256z" />
<glyph unicode="&#x201c;" d="M1120 1216q-8 152 144 408q40 72 112 56q88 -32 72 -104l-32 -96q-24 -48 32 -56q136 -96 96 -264q-48 -144 -216 -144q-192 16 -208 200zM1536 1448q8 8 8 16q24 96 88 176q152 96 192 -56q-8 -16 -24 -40q-24 -48 -24 -56q0 -32 56 -72q24 -16 32 -16q120 -104 72 -248 q-64 -136 -224 -136q-64 0 -112 32q-32 8 -8 40q88 192 -48 344q-16 0 -8 16z" />
<glyph unicode="&#x201d;" d="M184 1296q-208 304 152 384q56 0 112 -24q24 -24 8 -40q-96 -208 48 -352q8 -8 0 -16q-8 -16 0 -16q-32 -96 -88 -176q-168 -96 -192 64q0 8 8 24q32 40 40 64q0 32 -64 64q-16 8 -24 24zM496 1528q48 144 224 152q184 -24 208 -200q0 -152 -144 -408q-48 -72 -120 -56 q-88 32 -64 104l32 96q16 40 -32 56q-144 96 -104 256z" />
<glyph unicode="&#x2026;" d="M104 704q16 192 208 208q192 -16 208 -208q-16 -192 -208 -200q-192 8 -208 200zM808 696q16 192 208 208q192 -16 208 -208q-16 -192 -208 -200q-192 8 -208 200zM1528 696q16 192 208 208q192 -16 208 -208q-16 -192 -208 -200q-192 8 -208 200z" />
<glyph unicode="&#x202f;" horiz-adv-x="336" vert-adv-y="0" />
<glyph unicode="&#x205f;" horiz-adv-x="420" vert-adv-y="0" />
<glyph unicode="&#x25fc;" horiz-adv-x="1080" vert-adv-y="2160" d="M0 0v1080h1080v-1080h-1080z" />
</font>
</defs>
</svg>
