<?xml version="1.0" standalone="no"?>
<!DOCTYPE svg PUBLIC "-//W3C//DTD SVG 1.1//EN" "http://www.w3.org/Graphics/SVG/1.1/DTD/svg11.dtd" >
<svg xmlns="http://www.w3.org/2000/svg">
<metadata></metadata>
<defs>
<font id="stxinweiregular" horiz-adv-x="1024" vert-adv-y="2048" >
<font-face units-per-em="2048" ascent="1638" descent="-410" />
<missing-glyph horiz-adv-x="499" />
<glyph horiz-adv-x="0" vert-adv-y="0" />
<glyph horiz-adv-x="682" />
<glyph unicode=" " horiz-adv-x="499" vert-adv-y="2121" />
<glyph unicode="!" horiz-adv-x="616" vert-adv-y="2121" d="M164 96q0 68 43 101.5t100 33.5q61 0 97 -34.5t36 -94.5q0 -55 -42 -93t-105 -38q-55 0 -92 35t-37 90zM168 1411q94 59 158 59q94 0 94 -102q0 -57 -31 -297q-31 -233 -31 -405q0 -166 31 -213q-37 -25 -74 -25q-55 0 -81.5 55.5t-26.5 221.5l10 403q0 186 -49 303z" />
<glyph unicode="&#x22;" horiz-adv-x="677" vert-adv-y="2121" d="M92 1360q0 51 25.5 80.5t70.5 29.5q96 0 97 -106q0 -16 -4 -41l-60 -399q-8 -55 -33 -56q-12 0 -18 9.5t-12 48.5l-62 397q-4 18 -4 37zM403 1358q0 53 25 82.5t70 29.5q96 0 96 -108q0 -19 -4 -39l-60 -399q-8 -55 -32 -56q-12 0 -18.5 11.5t-12.5 46.5l-61 397 q-2 18 -3 35z" />
<glyph unicode="#" horiz-adv-x="1138" vert-adv-y="2121" d="M53 518q0 27 25.5 46.5t66.5 19.5h125l76 243h-102q-33 0 -54.5 16.5t-21.5 45.5t25.5 48t66.5 19h125l125 410q25 78 84 78q25 0 41 -16.5t16 -41.5q0 -12 -4 -26l-125 -404h240l127 404q31 80 86 80q23 0 37 -15.5t14 -38.5q0 -12 -4 -26l-125 -404h113q35 0 53 -17 t18 -44q0 -29 -27.5 -48.5t-70.5 -19.5h-127l-74 -243h115q72 0 72 -60q0 -35 -31 -52t-68 -17h-129l-125 -404q-12 -37 -36.5 -58.5t-51.5 -21.5q-51 0 -51 49q0 12 4 29l125 406h-239l-125 -404q-10 -33 -36 -56.5t-52 -23.5q-51 0 -52 49q0 12 4 29l125 406h-102 q-35 0 -55.5 17t-20.5 46zM403 580h244l78 251h-246z" />
<glyph unicode="$" horiz-adv-x="1165" vert-adv-y="2121" d="M256 25q0 51 45 108q68 -41 195 -41q135 0 202.5 56.5t67.5 144.5q0 61 -39 113.5t-160 142.5q-276 207 -276 362q0 106 74.5 207t214.5 168q-6 117 -7 199q0 115 80 114q41 0 84 -36q-20 -37 -30 -230q72 14 127 15q72 0 114.5 -24t42.5 -69q0 -47 -51 -114 q-78 33 -174 33q-131 0 -210 -57.5t-79 -155.5q0 -113 195 -265q123 -96 176 -148t77.5 -110.5t24.5 -118.5q0 -96 -62.5 -186t-199.5 -162q4 -127 4 -178q0 -70 -7 -93.5t-23.5 -37.5t-43.5 -14q-45 0 -94 45q31 71 35 229q-74 -12 -127 -12q-88 0 -132 31.5t-44 83.5z" />
<glyph unicode="%" horiz-adv-x="2033" vert-adv-y="2121" d="M190 995q0 195 103.5 315t277.5 120q98 0 184.5 -44.5t126.5 -138.5t40 -207q0 -201 -107.5 -325.5t-275.5 -124.5q-154 0 -251.5 110.5t-97.5 294.5zM336 1018q0 -139 55.5 -220t157.5 -81q104 0 165.5 85t61.5 228q0 137 -57 210t-160 73q-104 0 -163.5 -76t-59.5 -219 zM694 49q0 51 178 359q506 854 514 1050q41 6 68 6q104 0 105 -80q0 -47 -170 -340q-522 -893 -523 -1067v-2q-35 -4 -61 -4q-111 0 -111 78zM1325 399q0 197 103.5 319t279.5 122q162 0 257 -101.5t95 -285.5q0 -197 -109.5 -325t-277.5 -128q-154 0 -251 106.5t-97 292.5z M1473 426q0 -139 54 -221t154 -82q102 0 166 82t64 231q0 137 -55.5 210t-157.5 73t-163.5 -73t-61.5 -220z" />
<glyph unicode="&#x26;" horiz-adv-x="1435" vert-adv-y="2121" d="M80 391q0 303 330 469q-45 115 -45 213q0 162 112.5 267.5t300.5 105.5q109 0 184.5 -40t75.5 -97q0 -66 -90 -111q-76 96 -196 96q-96 0 -153.5 -61.5t-57.5 -165.5q0 -283 450 -668q82 156 82 310q49 10 86 10q90 0 90 -78q0 -104 -141 -340q164 -125 260 -125 q18 0 37 4q25 -49 25 -94t-25 -72.5t-68 -27.5q-118 0 -327 184q-109 -104 -216.5 -151.5t-244.5 -47.5q-219 0 -344 117t-125 303zM252 416q0 -137 92 -215t236 -78q188 0 313 143q-244 205 -418 469q-223 -117 -223 -319z" />
<glyph unicode="'" horiz-adv-x="368" vert-adv-y="2121" d="M92 1360q0 111 94 110q94 0 95 -106q0 -21 -2 -41l-60 -397q-8 -57 -33 -58q-12 0 -18 10.5t-12 47.5l-62 397q-2 18 -2 37z" />
<glyph unicode="(" horiz-adv-x="720" vert-adv-y="2121" d="M262 573q0 348 136.5 622.5t246.5 274.5q74 0 129 -98q-172 -109 -260 -330t-88 -505q0 -205 49 -400.5t111 -298.5q88 -145 88 -172q0 -18 -11.5 -30.5t-29.5 -12.5q-20 0 -50 22.5t-99.5 137.5t-119 232.5t-76 263t-26.5 294.5z" />
<glyph unicode=")" horiz-adv-x="720" vert-adv-y="2121" d="M12 -279q168 109 258 330t90 502q0 162 -28.5 308.5t-63.5 239.5t-112 232q-43 76 -43 90q0 16 10 31.5t29 15.5q80 0 226 -292.5t146 -659.5q0 -342 -136 -618.5t-251 -276.5q-70 0 -125 98z" />
<glyph unicode="*" vert-adv-y="2121" d="M127 1184q0 31 21.5 53.5t58.5 22.5q63 0 150 -74t87 -117q0 -20 -16 -33.5t-43 -13.5q-51 0 -154.5 47t-103.5 115zM203 762q0 57 87 134t132 77q20 0 34.5 -14.5t14.5 -34.5q0 -39 -63.5 -137.5t-128.5 -98.5q-33 0 -54.5 23.5t-21.5 50.5zM432 1350q0 53 24.5 86.5 t63.5 33.5q37 0 61.5 -29.5t24.5 -78.5q0 -84 -22.5 -159t-63.5 -75q-37 0 -62.5 61.5t-25.5 160.5zM567 924q0 18 14.5 32.5t32.5 14.5q43 0 132.5 -76t89.5 -135q0 -31 -21.5 -52.5t-52.5 -21.5q-70 0 -132.5 96.5t-62.5 141.5zM598 1065q0 45 87 118.5t153 73.5 q35 0 56 -24.5t21 -50.5q0 -66 -98 -115t-160 -49q-27 0 -41 14q-18 12 -18 33z" />
<glyph unicode="+" horiz-adv-x="1378" vert-adv-y="2121" d="M84 610q0 41 29.5 58.5t64.5 17.5h436v444q0 94 74 95q31 0 53.5 -27t22.5 -65v-447h438q41 0 66.5 -21.5t25.5 -54.5q0 -35 -24.5 -55t-69.5 -20h-436v-445q0 -94 -76 -94q-29 0 -51.5 26.5t-22.5 63.5v449h-438q-45 0 -68.5 24.5t-23.5 50.5z" />
<glyph unicode="," horiz-adv-x="583" vert-adv-y="2121" d="M141 131q0 51 37 86t94 35q80 0 132.5 -55.5t52.5 -143.5q0 -94 -62.5 -163.5t-150.5 -98.5l-6 10q37 23 57 61t20 72q0 45 -11 59.5t-52 26.5q-76 23 -93.5 45.5t-17.5 65.5z" />
<glyph unicode="-" horiz-adv-x="630" vert-adv-y="2121" d="M78 465q0 78 32.5 107.5t125.5 29.5q41 0 94 -6q88 -10 129 -10q57 0 94 18q2 -33 2 -57q0 -76 -38 -101.5t-114 -25.5q-45 0 -100 8q-61 10 -106 10q-66 0 -117 -20q-2 27 -2 47z" />
<glyph unicode="." horiz-adv-x="583" vert-adv-y="2121" d="M180 96q0 61 40 99t106 38q59 0 95 -37t36 -90q0 -59 -44 -97t-102 -38q-55 0 -93 33t-38 92z" />
<glyph unicode="/" horiz-adv-x="757" vert-adv-y="2121" d="M-53 -152q0 16 24 72l633 1430q41 94 115 94q53 0 53 -37q0 -12 -27 -74l-626 -1423q-33 -78 -64.5 -89t-52.5 -11q-55 0 -55 38z" />
<glyph unicode="0" horiz-adv-x="1204" vert-adv-y="2121" d="M72 666q0 362 149.5 563t403.5 201q242 0 373.5 -173.5t131.5 -494.5q0 -354 -152.5 -572.5t-395.5 -218.5q-233 0 -371.5 190.5t-138.5 504.5zM260 698q0 -274 87 -423.5t245 -149.5q168 0 261 163t93 462q0 260 -86 395t-252 135q-168 0 -258 -149.5t-90 -432.5z" />
<glyph unicode="1" horiz-adv-x="815" vert-adv-y="2121" d="M135 1243q0 45 23 98q96 16 198 54q104 35 133 35q61 0 62 -87l-16 -317q-12 -215 -13 -440q0 -256 12.5 -372t43.5 -169q-78 -45 -154 -45q-59 0 -77.5 28.5t-18.5 125.5q0 86 11 345t11 498q0 180 -8 240q-127 -57 -162 -57q-45 0 -45 63z" />
<glyph unicode="2" horiz-adv-x="1165" vert-adv-y="2121" d="M68 104q0 49 55 117t153 137q535 373 535 678q0 117 -79 189.5t-208 72.5q-104 0 -177 -50t-126 -154q-84 53 -84 127q0 104 111.5 176.5t281.5 72.5q215 0 343 -119.5t128 -299.5q0 -199 -180 -414t-542 -461q115 -4 206 -4q356 0 486 70q27 -74 26 -123 q0 -49 -34.5 -84t-153.5 -35q-72 0 -197 6t-229 6q-205 0 -287 -14q-29 51 -28 106z" />
<glyph unicode="3" horiz-adv-x="1165" vert-adv-y="2121" d="M135 88q1 47 60 129q84 -72 225 -72q162 0 266.5 76t104.5 193q0 102 -80 163.5t-234 75.5q-119 12 -157.5 27.5t-38.5 46.5q0 29 27.5 46.5t92.5 33.5q197 45 283 106.5t86 165.5q0 92 -71.5 154.5t-186.5 62.5q-152 0 -248 -104q-70 49 -69 106q0 74 92 123t237 49 q190 0 313.5 -103t123.5 -259q0 -262 -347 -348q367 -78 367 -338q0 -193 -176 -322t-443 -129q-227 0 -227 117z" />
<glyph unicode="4" horiz-adv-x="1165" vert-adv-y="2121" d="M41 502q0 35 36 93t169 221t293.5 345t218 230.5t94.5 48.5q31 0 40 -22.5t9 -71.5l-16 -316q-10 -193 -11 -489q154 0 220 39q27 -55 26 -99q0 -51 -38 -74.5t-128 -23.5q-35 0 -77 4l6 -309q0 -106 -82 -107q-59 0 -148 47q50 90 56 371q-248 6 -367 6q-184 0 -244 -18 q-57 70 -57 125zM229 563q0 -18 20.5 -25.5t82.5 -7.5q164 1 381 7q6 244 6 481v153q-172 -219 -331 -403t-159 -205z" />
<glyph unicode="5" horiz-adv-x="1165" vert-adv-y="2121" d="M164 90q0 53 61 137q84 -80 221 -80q186 0 306 109t120 264q0 125 -82.5 190.5t-216.5 65.5q-90 0 -174 -20q-70 -16 -102 -17q-55 0 -55 56q0 10 20 102l107 535q152 -10 288 -11q248 0 359 47q31 -55 31 -102t-35 -76.5t-267 -29.5q-106 0 -256 6q-31 -193 -67 -361 q123 23 194 23q207 0 325 -104.5t118 -280.5q0 -246 -196.5 -409t-456.5 -163q-106 0 -174 32t-68 87z" />
<glyph unicode="6" horiz-adv-x="1165" vert-adv-y="2121" d="M94 504q0 268 116 491.5t291 338t290 114.5q94 0 94 -88q0 -29 -11 -68q-475 -41 -579 -569q139 147 358 147q195 0 304.5 -111.5t109.5 -301.5q0 -213 -141.5 -349.5t-362.5 -136.5q-225 0 -347 137.5t-122 395.5zM281 467q0 -166 74.5 -254t215.5 -88q145 0 230.5 88 t85.5 240q0 272 -287 272q-182 0 -311 -145q-8 -59 -8 -113z" />
<glyph unicode="7" horiz-adv-x="1165" vert-adv-y="2121" d="M164 1327q0 33 15.5 52.5t39 24.5t94.5 5l435 -6q240 0 317 33q35 -57 35 -107q0 -70 -142 -307q-451 -756 -421 -1026q-72 -25 -119 -25q-53 0 -77 29t-24 68q0 109 134.5 375t441.5 788q-147 10 -272 10q-295 0 -410 -53q-47 80 -47 139z" />
<glyph unicode="8" horiz-adv-x="1165" vert-adv-y="2121" d="M123 356q0 123 69.5 218.5t204.5 152.5q-254 113 -254 348q0 176 129 285.5t344 109.5q201 0 312.5 -100t111.5 -256q0 -256 -295 -369q293 -88 293 -333q0 -190 -135 -315.5t-346 -125.5q-197 0 -315.5 105.5t-118.5 279.5zM299 373q0 -117 80 -183.5t194 -66.5 q127 0 210 78t83 196q0 102 -82 168t-252 113q-233 -102 -233 -305zM319 1073q0 -202 279 -274q272 88 272 293q0 111 -75.5 170t-190.5 59q-129 0 -207 -67.5t-78 -180.5z" />
<glyph unicode="9" horiz-adv-x="1165" vert-adv-y="2121" d="M94 973q0 217 135.5 348t364.5 131q221 0 345 -144.5t124 -404.5q0 -281 -111.5 -493.5t-284.5 -325.5t-313 -113q-109 0 -108 90q0 31 14 68q31 -4 59 -4q188 0 340 155.5t207 409.5q-68 -78 -165 -110.5t-191 -32.5q-193 0 -304.5 113.5t-111.5 312.5zM274 983 q0 -139 73 -213t210 -74q179 0 320 154q4 45 4 88q0 184 -79 274.5t-220 90.5t-224.5 -85t-83.5 -235z" />
<glyph unicode=":" horiz-adv-x="630" vert-adv-y="2121" d="M162 96q0 59 39.5 97t105.5 38q61 0 96 -33.5t35 -95.5q0 -55 -41 -93t-106 -38q-57 0 -93 35t-36 90zM172 764q0 61 38.5 98t106.5 37q59 0 95.5 -35t36.5 -94q0 -55 -42 -93t-106 -38q-57 0 -93 34t-36 91z" />
<glyph unicode=";" horiz-adv-x="630" vert-adv-y="2121" d="M147 131q0 51 36 85t96 34q82 0 133 -55.5t51 -145.5q0 -80 -55.5 -148.5t-157.5 -109.5l-6 10q35 20 56.5 60.5t21.5 83.5q0 37 -14.5 52t-63.5 28q-57 14 -77 37.5t-20 68.5zM166 780q0 59 39.5 97t105.5 38q61 0 96 -33.5t35 -95.5q0 -55 -41 -93t-106 -38 q-57 0 -93 35t-36 90z" />
<glyph unicode="&#x3c;" horiz-adv-x="1705" vert-adv-y="2121" d="M236 610q0 60 104 103l1016 415q27 10 47 11q27 0 49.5 -18.5t22.5 -51.5q0 -61 -62 -86l-917 -373l917 -374q61 -27 62 -84q0 -29 -19.5 -50.5t-52.5 -21.5q-20 0 -47 10l-1018 418q-102 43 -102 102z" />
<glyph unicode="=" horiz-adv-x="1705" vert-adv-y="2121" d="M246 420q0 76 94 76h1024q39 0 65.5 -21.5t26.5 -54.5t-25.5 -54.5t-70.5 -21.5h-1022q-43 0 -67.5 24.5t-24.5 51.5zM246 803q0 76 92 76h1024q39 0 66.5 -24t27.5 -58q0 -31 -26.5 -50.5t-71.5 -19.5h-1022q-43 0 -66.5 23.5t-23.5 52.5z" />
<glyph unicode="&#x3e;" horiz-adv-x="1705" vert-adv-y="2121" d="M270 152q0 27 17.5 49t46.5 35l915 374l-915 373q-29 10 -46.5 34.5t-17.5 51.5q0 29 20.5 49.5t53.5 20.5q20 0 47 -11l1014 -415q104 -43 104 -103q0 -29 -28.5 -56.5t-73.5 -45.5l-1018 -418q-25 -10 -47 -10q-33 0 -52.5 21.5t-19.5 50.5z" />
<glyph unicode="?" horiz-adv-x="811" vert-adv-y="2121" d="M154 1346q0 53 49 88.5t137 35.5q154 0 265.5 -102t111.5 -244q0 -135 -150 -331q-82 -104 -115.5 -167t-33.5 -132q0 -33 6 -60q-18 -2 -35 -2q-61 0 -95 30t-34 79q0 98 131 264q88 113 124 183.5t36 137.5q0 76 -55.5 126.5t-141.5 50.5q-78 0 -174 -62 q-27 68 -26 105zM229 96q0 61 39 98t105 37q61 0 97 -33.5t36 -95.5q0 -53 -43 -92t-105 -39q-57 0 -93 35t-36 90z" />
<glyph unicode="@" horiz-adv-x="2048" vert-adv-y="2121" d="M225 537q0 262 122 478t341 335.5t500 119.5q285 0 454.5 -155.5t169.5 -429.5q0 -176 -81.5 -322.5t-205.5 -215t-229 -68.5q-68 0 -96.5 30.5t-21.5 108.5q-125 -143 -275 -144q-127 0 -204.5 90.5t-77.5 239.5q0 133 79.5 259t198.5 176.5t234 50.5q110 -1 313 -56 q-55 -168 -86 -332.5t-31 -265.5q0 -20 21 -20q47 0 133 59.5t133 164.5t47 245q0 219 -136 334.5t-366 115.5q-342 0 -560 -227t-218 -576q0 -270 170 -429.5t459 -159.5q201 0 366.5 87t341.5 279q37 41 72 41q20 0 35.5 -15.5t15.5 -35.5q0 -70 -149.5 -209t-329.5 -211 t-383 -72q-340 0 -548 199t-208 531zM772 606q0 -211 191 -211q102 0 227 148l72 393q-90 35 -154 35q-141 0 -238.5 -104.5t-97.5 -260.5z" />
<glyph unicode="A" horiz-adv-x="1363" vert-adv-y="2121" d="M53 104q0 49 195 441q184 367 338 725q-25 37 -74 88q70 88 129 88q43 0 86 -59.5t92 -184.5q213 -543 333 -806t183 -318q-72 -78 -137 -78q-59 0 -125.5 116t-148.5 347h-541q-80 -174 -110.5 -268.5t-34.5 -190.5q-29 -4 -54 -4q-131 0 -131 104zM449 600h421 q-126 336 -204 508z" />
<glyph unicode="B" horiz-adv-x="1204" vert-adv-y="2121" d="M143 1438q135 0 237.5 4t115.5 4q244 0 389 -106.5t145 -276.5q0 -223 -276 -338q280 -78 280 -297q0 -186 -175 -310t-433 -124q-143 0 -192.5 33.5t-49.5 136.5q0 47 9.5 265t9.5 417q0 469 -60 592zM371 784q57 -6 108 -6q186 0 276.5 73t90.5 191q0 117 -91 186.5 t-268 69.5q-49 0 -108 -6q-4 -104 -6 -211zM373 649q0 -362 4 -487q68 -10 129 -10q158 0 249 72.5t91 185.5q0 117 -95.5 180t-279.5 63q-47 0 -98 -4z" />
<glyph unicode="C" horiz-adv-x="1345" vert-adv-y="2121" d="M131 709q0 324 259 542.5t646 218.5q123 0 181.5 -20t58.5 -76q0 -49 -51 -131q-106 49 -254 49q-285 0 -460 -155.5t-175 -407.5q0 -256 168 -419t420 -163q160 0 297 78q57 -72 57 -123q0 -63 -90 -97t-244 -34q-358 0 -585.5 212t-227.5 526z" />
<glyph unicode="D" horiz-adv-x="1492" vert-adv-y="2121" d="M143 1430q145 0 250 7t158 7q406 0 634 -191.5t228 -492.5q0 -319 -250 -539.5t-671 -220.5q-164 0 -237 33t-73 121l13 333q8 199 8 365q-1 437 -60 578zM381 608q0 -215 10 -411q92 -25 191 -25q285 0 452.5 147.5t167.5 397.5q0 254 -172 410.5t-457 156.5 q-86 0 -180 -16q-12 -428 -12 -660z" />
<glyph unicode="E" horiz-adv-x="1050" vert-adv-y="2121" d="M168 1430q291 0 428 6l246 12q86 0 112.5 -20.5t26.5 -61.5q0 -53 -43 -131q-98 47 -320 47q-29 0 -227 -4l-8 -442q76 -1 140 -1q301 0 362 23q24 -51 24 -89q0 -40 -25.5 -64.5t-127.5 -24.5l-236 4q-70 0 -141 -2q0 -262 -9 -518q104 -4 183 -4q252 0 350 53 q41 -72 41 -123q0 -49 -32.5 -70.5t-149.5 -21.5l-234 6q-96 0 -163 -2l-115 -4q-43 0 -52.5 20.5t-9.5 69.5q0 4 9.5 238.5t9.5 429.5q0 518 -39 674z" />
<glyph unicode="F" horiz-adv-x="1075" vert-adv-y="2121" d="M172 1430q123 -6 195 -7q98 0 249.5 11.5t223.5 11.5q90 0 115.5 -21.5t25.5 -62.5q0 -53 -43 -135q-84 49 -336 49q-94 0 -215 -6v-136q0 -192 -4 -313q63 0 116 -1q173 0 251 6q102 6 155 24q18 -39 19 -78q0 -47 -26 -72.5t-112 -30.5q-61 -4 -243 -4q-73 0 -164 1 q0 -547 65 -643q-96 -51 -168 -52q-39 0 -58 14.5t-26.5 39t-7.5 98.5q0 88 11.5 364.5t11.5 595.5q0 221 -35 347z" />
<glyph unicode="G" horiz-adv-x="1503" vert-adv-y="2121" d="M78 653q0 223 127 412.5t340 297t456 107.5q88 0 129 -23.5t41 -72.5q0 -47 -36 -121q-82 31 -181 31q-295 0 -480 -174t-185 -428q0 -260 162.5 -401.5t461.5 -141.5q150 0 285 49q14 104 14 193v5q0 186 -69 267q98 61 151 62q61 0 87 -46t26 -175q0 -121 -18.5 -223.5 t-44 -151.5t-85 -82t-148.5 -49.5t-206 -16.5q-379 0 -603 189.5t-224 492.5z" />
<glyph unicode="H" horiz-adv-x="1626" vert-adv-y="2121" d="M141 1391q106 53 166 53q39 0 65.5 -23.5t26.5 -113.5q0 -55 -6 -144t-10 -327h864q1 38 1 73q0 382 -60 482q102 53 168 53q92 0 92 -121l-12 -358q-6 -190 -6 -289q0 -522 65 -625q-92 -51 -168 -51q-39 0 -60.5 14.5t-27.5 40t-6 92.5l12 545h-864v-32q0 -514 63 -609 q-98 -51 -170 -51q-47 0 -68.5 25.5t-21.5 132.5q0 78 10.5 256t10.5 417q0 451 -64 560z" />
<glyph unicode="I" horiz-adv-x="602" vert-adv-y="2121" d="M152 1391q94 53 170 53q51 0 72.5 -29t21.5 -92l-13 -348q-8 -195 -8 -379q1 -434 64 -545q-102 -53 -172 -53q-43 0 -67.5 24.5t-24.5 135.5q0 68 9 246t9 427q0 459 -61 560z" />
<glyph unicode="J" horiz-adv-x="806" vert-adv-y="2121" d="M12 94q1 54 58 117q66 -59 145 -59q129 0 175 132t46 461q0 512 -69 648q92 47 151 47t79.5 -36t20.5 -169q0 -702 -33.5 -883.5t-133 -281t-254.5 -99.5q-84 0 -134.5 32t-50.5 91z" />
<glyph unicode="K" horiz-adv-x="1275" vert-adv-y="2121" d="M141 1389q92 51 166 51q43 0 66.5 -22.5t23.5 -102.5q0 -8 -7 -185.5t-7 -343.5q492 483 561 664q150 -37 150 -107q0 -33 -97.5 -139t-418.5 -411q623 -655 727 -660q-16 -74 -49 -113.5t-74 -39.5q-80 0 -199 135q-401 451 -600 637q0 -340 9 -470t42 -225 q-88 -59 -153 -59q-47 0 -72 35t-25 145q0 70 9.5 282t9.5 378q0 248 -14.5 368.5t-47.5 182.5z" />
<glyph unicode="L" horiz-adv-x="954" vert-adv-y="2121" d="M143 1391q94 51 160 51q61 0 83 -26.5t22 -129.5q0 -43 -11.5 -266t-11.5 -854q86 -8 166 -8q266 0 364 55q39 -76 39 -127q0 -43 -28.5 -65.5t-155.5 -22.5l-307 6q-96 0 -129 -4q-45 -4 -74 -4q-53 0 -61 16q-14 12 -15 60l15 295q8 180 8 407q0 291 -15.5 424 t-48.5 193z" />
<glyph unicode="M" horiz-adv-x="1947" vert-adv-y="2121" d="M76 51q160 410 160 1061q0 166 -33 277q57 55 123 55q92 0 307 -443q305 -634 340 -634q10 0 37.5 47t83.5 151l315 631q63 127 113.5 187.5t103.5 60.5t119 -55q-35 -117 -35 -283q0 -655 162 -1055q-90 -51 -168 -51q-84 0 -100.5 61.5t-24.5 325.5t-47 721 q-227 -428 -365.5 -709.5t-160 -311.5t-52.5 -30q-25 0 -49 29t-112 211l-215 430q-127 246 -199 377q-18 -291 -28.5 -526.5t-19.5 -365.5t-20.5 -154.5t-26 -41t-57.5 -16.5q-51 0 -151 51z" />
<glyph unicode="N" horiz-adv-x="1642" vert-adv-y="2121" d="M102 1335q82 96 146 97q20 0 36.5 -5.5t43 -27t131.5 -144.5l231 -274l594 -674q4 266 4 426q0 299 -18.5 435.5t-69.5 226.5q88 47 152 47q45 0 71.5 -26.5t26.5 -160.5q0 -78 -11.5 -304t-11.5 -464q0 -266 23 -442l-104 -57q-193 193 -509.5 561.5t-480.5 540.5 q0 -342 9 -631t10 -301q0 -94 -19.5 -127t-79.5 -33q-74 0 -157 53q61 98 79.5 304t18.5 593q0 184 -26.5 270.5t-88.5 116.5z" />
<glyph unicode="O" horiz-adv-x="1716" vert-adv-y="2121" d="M80 707q0 330 226 546.5t583 216.5q336 0 541.5 -191.5t205.5 -510.5q0 -215 -107.5 -400.5t-297 -291t-416.5 -105.5q-322 0 -528.5 206t-206.5 530zM289 721q0 -260 151.5 -422t399.5 -162q264 0 425.5 173t161.5 444q0 258 -153.5 407.5t-405.5 149.5 q-270 0 -424.5 -164t-154.5 -426z" />
<glyph unicode="P" horiz-adv-x="1118" vert-adv-y="2121" d="M141 1430q139 0 232 10q104 10 184 10q250 0 374 -113.5t124 -298.5q0 -223 -155 -363t-402 -140q-59 0 -123 8v-11q0 -362 65 -481q-117 -55 -174 -55q-45 0 -65.5 35t-20.5 112q0 88 10.5 273.5t10.5 380.5q0 539 -60 633zM377 690q59 -8 115 -8q172 0 267 85t95 245 q0 141 -83 213.5t-236 72.5q-68 0 -142 -16q-14 -195 -16 -592z" />
<glyph unicode="Q" horiz-adv-x="1716" vert-adv-y="2121" d="M80 707q0 334 226 548.5t583 214.5q340 0 543.5 -193.5t203.5 -508.5q0 -542 -557 -741q264 -80 428 -80q59 0 117 10q29 -72 29 -121q0 -102 -115 -102q-61 0 -123.5 15t-232.5 75q-393 137 -561 137q-121 0 -232 -67q-41 47 -41 86q0 75 135 75h4q-205 76 -306 253 t-101 399zM289 721q0 -258 153.5 -421t397.5 -163q260 0 423.5 173t163.5 444q0 260 -153.5 408.5t-411.5 148.5q-264 0 -418.5 -165t-154.5 -425z" />
<glyph unicode="R" horiz-adv-x="1308" vert-adv-y="2121" d="M143 1430q229 6 271 10q78 10 145 10q236 0 365 -106.5t129 -290.5q0 -328 -324 -453q72 -25 182 -147q260 -293 383 -326q-53 -145 -133 -145q-41 0 -93 37.5t-218 238.5q-240 287 -377 287q-33 0 -94 -6q4 -190 14 -295t47 -193q-96 -51 -161 -51q-37 0 -56.5 10 t-30 43t-10.5 90q0 29 10.5 266.5t10.5 481.5q0 416 -60 539zM379 666q29 -2 55 -2q201 0 313.5 99t112.5 263q0 129 -87 200.5t-232 71.5q-70 0 -148 -16q-14 -358 -14 -616z" />
<glyph unicode="S" horiz-adv-x="882" vert-adv-y="2121" d="M133 86q0 58 43 121q78 -45 172 -45q102 0 184 57t82 156q0 111 -188 264q-133 106 -196.5 195.5t-63.5 177.5q0 94 71.5 206.5t204.5 182t254 69.5q72 0 111 -26.5t39 -71.5q0 -53 -51 -123q-80 33 -162 33q-125 0 -199 -62.5t-74 -166.5q0 -63 33 -114.5t142 -139.5 q131 -109 201.5 -209.5t70.5 -177.5q0 -106 -77 -218t-197.5 -167.5t-233.5 -55.5q-166 0 -166 115z" />
<glyph unicode="T" horiz-adv-x="1222" vert-adv-y="2121" d="M31 1368q0 45 36.5 62.5t127.5 17.5q78 0 204 -10q102 -8 338 -8q348 0 453 59q39 -61 39 -111q0 -35 -21.5 -59.5t-52.5 -33.5t-108 -9q-90 0 -322 12q-14 -416 -14 -637v-15q0 -478 65 -585q-92 -53 -170 -53q-55 0 -74.5 31.5t-19.5 122.5q0 84 10 278.5t10 546.5 q0 190 -4 311h-26q-346 0 -426 -53q-45 82 -45 133z" />
<glyph unicode="U" horiz-adv-x="1540" vert-adv-y="2121" d="M139 1397q90 51 162 51q59 0 79.5 -28.5t20.5 -139.5q0 -63 -11 -259t-11 -335q0 -287 80 -417t291 -130q236 0 340 161t104 517q0 444 -102 572q86 59 149 59q82 0 107.5 -93t25.5 -362q0 -541 -149.5 -780.5t-497.5 -239.5q-305 0 -422 157t-117 509q0 84 6.5 184.5 t6.5 188.5q-1 279 -62 385z" />
<glyph unicode="V" horiz-adv-x="1345" vert-adv-y="2121" d="M-16 1362q63 80 143 80q96 0 201 -309q295 -879 336 -879q27 0 122 147.5t196 393t101 456.5q0 100 -24 166q74 25 121 25q100 0 100 -129q0 -186 -84 -411.5t-248 -503t-223 -353.5t-90 -76q-51 0 -122 145.5t-261 678.5q-178 501 -268 569z" />
<glyph unicode="W" horiz-adv-x="2066" vert-adv-y="2121" d="M-43 1362q66 80 139 80q72 0 117 -77t197 -509q215 -612 262 -612q31 0 113.5 108.5t209.5 333.5q-223 565 -358 653q55 86 137 86q109 0 318 -591q129 285 129 446q-1 64 -19 123q67 22 109 22h4q88 0 88 -106q0 -170 -244 -641q215 -426 262 -426q20 0 81 81t164 276.5 t147.5 358t44.5 292.5q0 94 -25 157q70 25 117 25t74.5 -28t27.5 -105q0 -160 -67.5 -349.5t-150.5 -342t-205 -339t-171 -247t-67 -60.5q-53 0 -328 568q-352 -567 -442 -568q-39 0 -114 148.5t-259 646.5q-190 514 -291 596z" />
<glyph unicode="X" horiz-adv-x="1345" vert-adv-y="2121" d="M104 72q0 55 88.5 179t399.5 476q-385 549 -473 555q47 166 141 166q35 0 59.5 -22.5t81.5 -116.5q135 -222 297 -451q193 231 260.5 347t67.5 179q0 20 -8 37q68 18 115 19q96 0 96 -72q0 -55 -78 -165.5t-375 -457.5q236 -347 338 -465q99 -115 140 -114h3 q-16 -78 -54 -122t-85 -44q-27 0 -50.5 16.5t-78.5 104.5l-137 219q-84 129 -182 274q-199 -240 -278 -364.5t-79 -194.5q0 -20 6 -37q-76 -18 -122 -18q-92 0 -93 72z" />
<glyph unicode="Y" horiz-adv-x="1218" vert-adv-y="2121" d="M-2 1288q49 168 149 168q31 0 60 -30.5t82 -125.5q164 -295 325 -542q162 233 263.5 401t101.5 242q0 18 -6 33q68 16 112 16q90 0 91 -72q0 -25 -52.5 -113.5t-202 -302.5t-229.5 -335q-2 -78 -2 -148q0 -324 58 -430q-100 -49 -168 -49q-55 0 -73 28.5t-18 96.5 q1 18 19 477q-383 674 -510 686z" />
<glyph unicode="Z" horiz-adv-x="1183" vert-adv-y="2121" d="M181.5 322q72.5 124 209.5 296q190 238 311 410t121 213q0 23 -27.5 31t-101.5 8q-426 0 -536 -57q-25 70 -25 112q0 39 18.5 61.5t44 30t99.5 7.5l471 -9q178 0 211 11q70 -66 70 -133q0 -123 -299 -490q-213 -262 -319.5 -422t-106.5 -192q0 -20 56 -30.5t222 -10.5 q350 0 465 55q25 -68 25 -113q0 -51 -33 -76.5t-170 -25.5q-82 0 -230.5 8t-257.5 8q-149 0 -221 -16q-69 62 -69 143q0 57 72.5 181z" />
<glyph unicode="[" horiz-adv-x="720" vert-adv-y="2121" d="M211 -348q29 158 29 874q0 737 -29 904q119 -4 184 -5q123 0 223 21q51 -51 52 -96q0 -25 -13.5 -36t-50.5 -11q-45 0 -209 10q14 -539 15 -783q0 -262 -15 -761q53 0 107 4l108 6q23 0 40.5 -12.5t17.5 -36.5q0 -37 -52 -95q-88 18 -253 19q-66 0 -154 -2z" />
<glyph unicode="\" horiz-adv-x="757" vert-adv-y="2121" d="M-45 1405q0 37 53 37q45 0 67.5 -18t51.5 -81l629 -1423q25 -51 24 -76q0 -35 -57 -34q-70 0 -115 100l-626 1423q-27 61 -27 72z" />
<glyph unicode="]" horiz-adv-x="720" vert-adv-y="2121" d="M66 -268q0 47 61 47q31 0 215 -12q-14 391 -14 774q0 438 14 772q-72 0 -137 -6q-53 -4 -78 -4q-59 0 -59 47q0 39 53 96q106 -20 239 -21q66 0 168 5q-31 -176 -30 -889q-1 -694 28 -889q-127 2 -184 2q-119 0 -221 -21q-55 55 -55 99z" />
<glyph unicode="^" horiz-adv-x="2048" vert-adv-y="2121" d="M449 934q0 39 96 137l289 291q53 53 97 80.5t105 27.5q47 0 91 -24.5t112 -91.5l330 -330q57 -57 57 -90q0 -18 -15.5 -31.5t-33.5 -13.5q-39 0 -125 69l-360 291q-43 35 -62 35q-16 0 -53 -31l-359 -290q-90 -74 -131 -74q-18 0 -28 14.5t-10 30.5z" />
<glyph unicode="_" vert-adv-y="2121" d="M0 -365h1024v-118h-1024v118z" />
<glyph unicode="`" vert-adv-y="2121" d="M276 1358q0 37 25 60.5t64 23.5q55 0 155 -115q57 -68 123 -123q43 -39 43 -55q0 -33 -41 -33q-55 0 -212 76t-157 166z" />
<glyph unicode="a" horiz-adv-x="1019" vert-adv-y="2121" d="M84 293q0 156 128 250t343 94q76 0 156 -12q2 20 2 41q0 106 -59.5 164.5t-168.5 58.5q-178 0 -247 -125q-74 18 -74 88q0 72 90 120t244 48q176 0 271 -90t95 -254l-6 -250q0 -307 70 -389q-84 -51 -131 -51q-74 0 -82 112q-143 -127 -297 -127q-150 0 -242 92.5 t-92 229.5zM250 297q0 -86 55 -134t154 -48q154 0 252 110q-4 77 -4 160q0 55 2 113q-86 14 -158 14q-147 0 -224 -54.5t-77 -160.5z" />
<glyph unicode="b" horiz-adv-x="1142" vert-adv-y="2121" d="M102 1425q94 45 148 45q43 0 60.5 -26.5t17.5 -112.5q0 -51 -5.5 -144t-9.5 -321q166 113 324 113q186 0 309 -128t123 -327q0 -238 -160.5 -394.5t-400.5 -156.5q-166 1 -377 93q25 287 25 780q0 274 -10.5 395t-43.5 184zM311 432q0 -141 2 -256q119 -65 225 -65h3 q160 0 259 111.5t99 285.5q0 156 -85 244t-224 88q-127 0 -277 -103q-2 -164 -2 -305z" />
<glyph unicode="c" horiz-adv-x="868" vert-adv-y="2121" d="M76 436q0 242 166 413t403 171q172 0 172 -102q0 -54 -55 -103q-70 45 -158 45q-154 0 -254 -113.5t-100 -279.5q0 -158 92 -249t240 -91q133 0 221 74q37 -49 37 -95q0 -61 -72 -98t-199 -37q-217 0 -355 131t-138 334z" />
<glyph unicode="d" horiz-adv-x="1185" vert-adv-y="2121" d="M76 444q0 236 156.5 393.5t394.5 157.5q121 0 258 -53q0 406 -49 485q90 43 137 43q49 0 67.5 -24.5t18.5 -93.5q0 -51 -13.5 -296t-13.5 -481q0 -246 13.5 -364.5t50.5 -181.5q-86 -45 -146 -45q-45 0 -59 26.5t-14 83.5q0 20 2 41q-150 -164 -351 -164 q-199 0 -325.5 131t-126.5 342zM248 449q0 -156 84 -247t227 -91q182 0 315 170q4 291 5 401q0 86 -2 121q-145 59 -250 59q-172 0 -275.5 -112.5t-103.5 -300.5z" />
<glyph unicode="e" horiz-adv-x="1005" vert-adv-y="2121" d="M76 483q0 233 137 385t350 152q164 0 270.5 -98.5t106.5 -245.5q0 -117 -90 -165t-315 -48q-145 0 -295 22v-19q0 -156 92 -252q98 -101 250 -101h4q146 0 248 77q43 -47 43 -90q0 -59 -77 -94t-214 -35q-236 0 -373 138.5t-137 373.5zM252 604q169 -22 294 -22h11 q139 0 180 23.5t41 82.5q0 94 -62.5 150.5t-172.5 56.5q-113 0 -190.5 -76t-100.5 -215z" />
<glyph unicode="f" horiz-adv-x="634" vert-adv-y="2121" d="M88 936q29 -2 125 -2v21q0 239 86 374q90 141 272 141q70 0 112 -28.5t42 -73.5q0 -61 -88 -102q-43 55 -102 55q-84 0 -120 -92q-34 -87 -34 -265v-20q98 8 174 8q66 0 66 -57q0 -35 -25 -82q-39 15 -147 15q-32 0 -70 -1q0 -172 6 -366l8 -338q0 -68 -19.5 -95.5 t-62.5 -27.5q-68 0 -151 49q59 111 59 498q0 118 -4 274q-51 -4 -76 -4q-69 0 -69 52q0 34 18 67z" />
<glyph unicode="g" horiz-adv-x="1028" vert-adv-y="2121" d="M47 -160q0 197 227 295q-49 43 -49 94q0 68 82 150q-194 99 -194 287q0 154 111.5 254t283.5 100q104 0 209 -59q217 61 235 104q39 -43 39 -90q0 -45 -33.5 -76t-136.5 -45q70 -88 70 -184q0 -141 -107.5 -233.5t-273.5 -92.5q-43 0 -86 6q-39 -41 -39 -74 q0 -72 193 -110q190 -39 289.5 -94.5t99.5 -186.5q0 -152 -135.5 -251t-352.5 -99q-209 0 -320.5 85t-111.5 220zM209 -129q0 -94 83 -149.5t214 -55.5t212 50.5t81 129.5q0 121 -424 217q-166 -66 -166 -192zM270 682q0 -92 64.5 -152.5t169.5 -60.5q102 0 168.5 60.5 t66.5 152.5q0 90 -64.5 147.5t-166.5 57.5q-104 0 -171 -57.5t-67 -147.5z" />
<glyph unicode="h" horiz-adv-x="1128" vert-adv-y="2121" d="M117 1427q82 43 143 43q53 0 67.5 -31.5t14.5 -103.5q0 -53 -6 -134t-14 -290q152 109 305 109q92 0 162.5 -32t115.5 -92t60.5 -127t15.5 -175l-6 -262q0 -213 51 -287q-94 -45 -143 -45q-51 0 -66.5 25.5t-15.5 91.5q0 55 6 170.5t6 208.5q0 211 -52 299t-173 88 q-109 0 -266 -101q-6 -231 -7 -358q0 -160 10.5 -242t39.5 -139q-78 -43 -144 -43q-51 0 -66.5 24.5t-15.5 104.5q0 88 13.5 323.5t13.5 503.5q0 246 -10.5 328t-38.5 143z" />
<glyph unicode="i" horiz-adv-x="516" vert-adv-y="2121" d="M121 950q80 45 153 45q80 0 80 -90l-12 -233q-6 -139 -6 -256q0 -265 55 -371q-82 -45 -153 -45q-47 0 -65.5 27.5t-18.5 126.5q0 74 9 200.5t9 259.5q0 233 -51 336zM127 1278q0 55 40 95t97 40q49 0 84 -31.5t35 -81.5q0 -57 -39 -95t-102 -38q-53 0 -84 30t-31 81z " />
<glyph unicode="j" horiz-adv-x="540" vert-adv-y="2121" d="M-47 -334q0 31 49 70q111 86 161 244.5t50 496.5q0 383 -55 475q84 43 145 43q57 0 73.5 -33.5t16.5 -142.5q0 -397 -15.5 -598t-67.5 -319.5t-151.5 -205.5t-148.5 -87q-27 0 -42 19.5t-15 37.5zM162 1278q0 55 40 95t97 40q55 0 87 -36t32 -77q0 -57 -40 -95t-102 -38 q-51 0 -82.5 30t-31.5 81z" />
<glyph unicode="k" horiz-adv-x="1028" vert-adv-y="2121" d="M117 1427q94 43 145 43q37 0 58.5 -21.5t21.5 -107.5q0 -6 -13.5 -279.5t-13.5 -518.5q406 330 473 467q125 -41 125 -107q0 -31 -128 -137.5t-306 -243.5q447 -422 516 -422h2q-18 -123 -102 -123q-66 0 -287 224q-182 184 -295 286q1 -360 52 -444q-80 -43 -146 -43 q-47 0 -63.5 30.5t-16.5 98.5q0 41 13.5 313.5t13.5 505.5q0 238 -9.5 329t-39.5 150z" />
<glyph unicode="l" horiz-adv-x="530" vert-adv-y="2121" d="M125 1425q82 45 147 45q53 0 69.5 -27.5t16.5 -99.5q0 -115 -11 -325.5t-11 -536.5q0 -352 55 -436q-82 -45 -147 -45q-39 0 -61.5 20.5t-22.5 131.5q0 84 11 318.5t11 500.5q0 362 -57 454z" />
<glyph unicode="m" horiz-adv-x="1742" vert-adv-y="2121" d="M117 1010q51 10 88 10q106 0 119 -107q154 106 305 107q147 0 258 -115q158 115 340 115q174 0 271 -97.5t97 -271.5l-4 -245q0 -291 51 -361q-90 -45 -143 -45q-33 0 -49 9t-24.5 40t-8.5 101l15 393q0 178 -53.5 256t-176.5 78q-137 0 -260 -78q18 -98 19 -437 q0 -254 45 -319q-86 -43 -146 -43q-37 0 -57.5 20.5t-20.5 116.5q0 47 5.5 153.5t5.5 205.5q0 211 -46.5 297t-164.5 86q-123 0 -254 -95q-8 -268 -9 -391q0 -254 50 -350q-76 -43 -144 -43q-57 0 -69.5 35t-12.5 96q0 59 11.5 218t11.5 329q0 236 -49 332z" />
<glyph unicode="n" horiz-adv-x="1150" vert-adv-y="2121" d="M117 1006q49 14 88 14q106 0 119 -113q70 51 158.5 82t166.5 31t145.5 -26.5t117.5 -83.5q50 -56 72 -145q20 -81 20 -217v-26v-141q0 -150 9 -213.5t42 -122.5q-90 -45 -144 -45q-49 0 -66.5 26.5t-17.5 116.5q0 47 6.5 151.5t6.5 229.5q0 195 -60.5 276t-171.5 81 q-122 -1 -278 -101q-8 -229 -8 -366q0 -281 47 -371q-78 -43 -144 -43q-43 0 -61.5 20.5t-18.5 88.5q0 55 9.5 250.5t9.5 314.5q0 227 -47 332z" />
<glyph unicode="o" horiz-adv-x="1228" vert-adv-y="2121" d="M76 483q0 238 156.5 387.5t404.5 149.5q225 0 370.5 -141.5t145.5 -358.5q0 -227 -161 -388t-392 -161q-233 0 -378.5 143.5t-145.5 368.5zM248 483q0 -162 103.5 -265t260.5 -103q164 0 266.5 111.5t102.5 277.5t-101.5 271.5t-263.5 105.5q-166 0 -267 -109t-101 -289z " />
<glyph unicode="p" horiz-adv-x="1189" vert-adv-y="2121" d="M117 981q53 14 90 14q98 0 108 -110q153 110 321 110h3q205 0 340 -137t135 -336q0 -219 -153.5 -370.5t-368.5 -151.5q-168 0 -277 82q-2 -63 -2 -119q0 -258 52 -362q-80 -43 -142 -43q-35 0 -51 13t-22.5 32.5t-6.5 85.5q0 90 12.5 375.5t12.5 470.5q0 336 -51 446z M319 223q129 -86 267 -86q158 0 258 102.5t100 256.5q0 166 -94 263t-244 97q-133 0 -280 -100z" />
<glyph unicode="q" horiz-adv-x="1161" vert-adv-y="2121" d="M76 473q0 240 158.5 393.5t412.5 153.5q49 0 154 -12q106 -14 155 -15q29 0 86 4q-32 -197 -32 -590v-24q0 -637 71 -768q-88 -43 -145 -43q-49 0 -66.5 27.5t-17.5 101.5q0 25 3 145q2 73 2 170q0 66 -1 142q-145 -158 -332 -158q-197 0 -322.5 133t-125.5 340zM238 477 q0 -154 85 -246t224 -92q170 0 311 170q4 137 4 308q0 113 -2 241q-127 29 -217 29q-188 0 -296.5 -109.5t-108.5 -300.5z" />
<glyph unicode="r" horiz-adv-x="739" vert-adv-y="2121" d="M121 981q47 14 82 14q47 0 79.5 -24.5t32.5 -102.5q0 -35 -6 -82q147 209 277 209q55 0 95 -35.5t40 -87.5q0 -68 -90 -131q-31 86 -96 86q-47 0 -101.5 -48t-107.5 -140q-10 -102 -11 -203q0 -274 68 -393q-82 -43 -154 -43q-51 0 -68.5 20.5t-17.5 106.5q0 33 10.5 216 t10.5 323q0 233 -43 315z" />
<glyph unicode="s" horiz-adv-x="702" vert-adv-y="2121" d="M123 59q0 44 35 101q68 -37 133 -37q72 0 116 35t44 90q0 47 -27 86t-88 88q-199 158 -199 272q0 121 117 223.5t281 102.5q53 0 75.5 -20.5t22.5 -47.5q0 -33 -39 -104q-53 22 -94 22h-4q-82 0 -134.5 -39.5t-52.5 -105.5q0 -33 37 -83t103 -105q104 -88 135.5 -145.5 t31.5 -115.5q0 -115 -113.5 -210t-244.5 -95q-55 0 -95 21.5t-40 66.5z" />
<glyph unicode="t" horiz-adv-x="677" vert-adv-y="2121" d="M63 827q0 29 19 70q28 -2 58 -2q45 0 93 4q1 26 1 50q0 176 -39 257q88 43 137 43q76 0 76 -108q0 -27 -15 -236q139 16 182 17q70 0 70 -48q0 -37 -37 -92q-43 12 -106 13q-39 0 -121 -4q-16 -283 -16 -414q0 -162 27.5 -210t76.5 -48q35 0 72 24q16 -35 16 -65 q0 -49 -39 -78t-106 -29q-111 0 -162 71t-51 218v6q0 79 24 512q-55 -2 -80 -2q-47 0 -63.5 12.5t-16.5 38.5z" />
<glyph unicode="u" horiz-adv-x="1118" vert-adv-y="2121" d="M96 954q94 43 144 43q73 0 73 -107q0 -73 -8 -208t-8 -225q0 -207 49 -274.5t154 -67.5q80 0 158.5 43t134.5 123q8 158 8 276q0 299 -56 395q88 45 144 45q49 0 62.5 -29.5t13.5 -117.5l-9 -447q0 -287 54 -368q-88 -45 -140 -45q-43 0 -58 27.5t-17 117.5 q-55 -80 -142.5 -122t-185.5 -42q-100 0 -175 42t-117 127t-42 241l10 303q0 190 -47 270z" />
<glyph unicode="v" horiz-adv-x="1103" vert-adv-y="2121" d="M18 860q80 135 142 135q49 0 88 -68.5t106 -279.5q150 -467 176 -467q43 0 176.5 251t133.5 429q0 70 -21 123q53 12 92 12q117 0 117 -104q0 -86 -51 -223.5t-158.5 -318.5t-185.5 -272t-146 -91q-53 0 -101 91t-132 353q-107 334 -236 430z" />
<glyph unicode="w" horiz-adv-x="1683" vert-adv-y="2121" d="M8 899q72 96 135 96q61 0 125 -219q76 -264 140.5 -427t87.5 -163q27 0 120 202t136 433q31 158 96 158q63 0 106 -201q59 -281 121 -436.5t86 -155.5q16 0 90 125t131.5 276.5t57.5 268.5q0 76 -23 125q51 14 90 14q113 0 113 -112q0 -197 -204 -547t-290 -350 q-61 0 -131.5 168t-156.5 501q-84 -274 -190.5 -471.5t-174.5 -197.5q-43 0 -113.5 134t-197.5 464q-103 270 -154 315z" />
<glyph unicode="x" horiz-adv-x="1038" vert-adv-y="2121" d="M72 61q0 93 362 439q-293 387 -356 387h-2q39 121 117 121q16 0 32.5 -11.5t50 -50.5t105.5 -137l156 -213q117 125 182 216t65 146q0 12 -4 27q53 23 97 23q84 0 84 -76q0 -80 -357 -434q292 -392 346 -392h2q-33 -118 -111 -118h-1q-35 0 -100.5 77.5t-231.5 327.5 q-109 -115 -180.5 -208t-71.5 -146q0 -14 4 -31q-68 -20 -110 -20q-78 0 -78 73z" />
<glyph unicode="y" horiz-adv-x="1069" vert-adv-y="2121" d="M16 819q20 84 57.5 130t80.5 46q35 0 53 -15t46 -76.5t95 -229.5q92 -227 211 -471q162 352 217 499.5t55 210.5q0 23 -6 50q20 10 64.5 21t60.5 11q78 0 78 -73q0 -43 -141 -336q-195 -408 -318 -731q-104 -276 -170 -277q-63 0 -143 117q70 59 107.5 120.5t103.5 196.5 q-170 403 -268.5 594t-182.5 213z" />
<glyph unicode="z" horiz-adv-x="919" vert-adv-y="2121" d="M61 72q0 31 199 288q203 262 358 490q-90 4 -167 4q-254 0 -324 -39q-23 68 -23 103q0 43 29 57t127 14l336 -4q168 0 221 14q35 -41 35 -77q0 -45 -203 -308q-199 -252 -348 -471q106 -4 193 -4q252 0 340 37q18 -55 18 -86q0 -90 -156 -90l-190 4q-125 4 -223 4 q-95 0 -185 -12q-37 31 -37 76z" />
<glyph unicode="{" horiz-adv-x="720" vert-adv-y="2121" d="M41 565q0 31 16.5 42t55.5 18q182 27 182 231v264q0 184 63.5 267t208.5 83q150 0 150 -65q0 -43 -74 -43q-98 -2 -142 -48t-44 -155v-207q0 -209 -53.5 -284.5t-178.5 -102.5q123 -8 177.5 -69.5t54.5 -212.5v-203q-4 -141 7 -192.5t45 -81t87 -31.5q72 -4 96.5 -14.5 t24.5 -32.5q0 -35 -38 -48.5t-79 -13.5q-92 0 -152.5 21.5t-94.5 66.5t-46 117t-10 166v182q0 139 -38 201.5t-138 83.5q-80 16 -80 61z" />
<glyph unicode="|" vert-adv-y="2121" d="M449 -483v1953h126v-1953h-126z" />
<glyph unicode="}" horiz-adv-x="720" vert-adv-y="2121" d="M4 -311q0 43 94 45q68 2 98.5 21.5t49 71.5t18.5 122l-2 293q0 147 55.5 212.5t176.5 69.5q-92 20 -142.5 61.5t-71 121t-20.5 268.5l4 106q0 129 -39 181.5t-143 56.5q-78 4 -78 45q0 66 150 66q143 0 206.5 -84t63.5 -267v-264q0 -104 44 -159.5t140 -71.5 q37 -8 52.5 -19.5t15.5 -40.5q0 -43 -74 -61q-123 -31 -151.5 -95.5t-28.5 -209.5l4 -209q0 -158 -64.5 -241t-242.5 -83q-115 0 -115 64z" />
<glyph unicode="~" horiz-adv-x="1705" vert-adv-y="2121" d="M176 535q0 72 131 148.5t283 76.5q143 0 299 -68q59 -27 148 -48t145 -21q98 0 202 61q104 59 121 59q33 0 53.5 -18t20.5 -49q0 -74 -121 -141.5t-287 -67.5q-72 0 -116.5 10t-182.5 58q-190 66 -288 65q-92 0 -203 -63q-113 -66 -145 -66q-20 0 -40 18.5t-20 45.5z" />
<glyph vert-adv-y="2121" />
<glyph horiz-adv-x="2048" vert-adv-y="2121" />
<glyph horiz-adv-x="2048" vert-adv-y="2121" />
<glyph horiz-adv-x="2048" vert-adv-y="2121" />
<glyph horiz-adv-x="2048" vert-adv-y="2121" />
<glyph horiz-adv-x="2048" vert-adv-y="2121" />
<glyph unicode="&#x85;" horiz-adv-x="2048" vert-adv-y="2121" />
<glyph horiz-adv-x="2048" vert-adv-y="2121" />
<glyph horiz-adv-x="2048" vert-adv-y="2121" />
<glyph horiz-adv-x="2048" vert-adv-y="2121" />
<glyph horiz-adv-x="2048" vert-adv-y="2121" />
<glyph horiz-adv-x="2048" vert-adv-y="2121" />
<glyph horiz-adv-x="2048" vert-adv-y="2121" />
<glyph horiz-adv-x="2048" vert-adv-y="2121" />
<glyph horiz-adv-x="2048" vert-adv-y="2121" />
<glyph horiz-adv-x="2048" vert-adv-y="2121" />
<glyph horiz-adv-x="2048" vert-adv-y="2121" />
<glyph horiz-adv-x="2048" vert-adv-y="2121" />
<glyph horiz-adv-x="2048" vert-adv-y="2121" />
<glyph horiz-adv-x="2048" vert-adv-y="2121" />
<glyph horiz-adv-x="2048" vert-adv-y="2121" />
<glyph horiz-adv-x="2048" vert-adv-y="2121" />
<glyph horiz-adv-x="2048" vert-adv-y="2121" />
<glyph horiz-adv-x="2048" vert-adv-y="2121" />
<glyph horiz-adv-x="2048" vert-adv-y="2121" />
<glyph horiz-adv-x="2048" vert-adv-y="2121" />
<glyph horiz-adv-x="2048" vert-adv-y="2121" />
<glyph horiz-adv-x="2048" vert-adv-y="2121" />
<glyph horiz-adv-x="2048" vert-adv-y="2121" />
<glyph horiz-adv-x="2048" vert-adv-y="2121" />
<glyph horiz-adv-x="2048" vert-adv-y="2121" />
<glyph horiz-adv-x="2048" vert-adv-y="2121" />
<glyph horiz-adv-x="2048" vert-adv-y="2121" />
<glyph unicode="&#xa0;" vert-adv-y="2121" />
<glyph unicode="&#xa1;" vert-adv-y="2121" />
<glyph unicode="&#xa2;" vert-adv-y="2121" />
<glyph unicode="&#xa3;" vert-adv-y="2121" />
<glyph unicode="&#xa4;" horiz-adv-x="2048" vert-adv-y="2121" d="M276 586q0 279 187 491l-174 174l73 74l179 -174q209 178 487.5 178t478.5 -166l176 170l74 -84l-168 -164q178 -213 178 -491.5t-172 -478.5l168 -164l-82 -80l-168 164q-201 -176 -486.5 -176t-494.5 182l-161 -164l-78 78l164 158q-180 205 -181 473zM385 586 q0 -254 189.5 -436.5t447.5 -182.5q262 0 451.5 186.5t189.5 432.5q0 262 -187.5 448.5t-451.5 186.5t-451.5 -187.5t-187.5 -447.5z" />
<glyph unicode="&#xa5;" vert-adv-y="2121" />
<glyph unicode="&#xa6;" vert-adv-y="2121" />
<glyph unicode="&#xa7;" horiz-adv-x="2048" vert-adv-y="2121" d="M696 658.5q0 80.5 47.5 140t133.5 90.5q-125 123 -125 283.5t99 240.5t222 80t205 -54.5t82 -138.5q0 -49 -33 -87.5t-76 -38.5t-72.5 33.5t-29.5 71.5t24.5 55.5t24.5 26.5t-38 30.5t-92 21.5t-127 -57.5t-73 -137t65.5 -162.5t202 -157t214 -167t77.5 -174t-50 -141.5 t-142 -99.5q131 -139 131 -276t-107.5 -227t-239.5 -90t-208 62t-76 142q0 49 32 84t75 35t73.5 -36t30.5 -76.5t-25.5 -57t-25.5 -29t28.5 -22.5t67.5 -10q94 0 163 45t69 132t-64.5 175t-191.5 158.5t-199 161t-72 171zM827 684q0 -35 43 -73t236 -181q37 -27 51 -41 q104 20 120.5 67.5t16.5 82t-53 84t-213 149.5q-35 23 -72 53q-129 -57 -129 -141z" />
<glyph unicode="&#xa8;" horiz-adv-x="2048" vert-adv-y="2121" d="M598 1286q0 53 39 92t92 39t92 -39t39 -92t-39 -92t-92 -39t-92 39t-39 92zM1231 1286q0 53 39 92t92 39t92 -39t39 -92t-39 -92t-92 -39t-92 39t-39 92z" />
<glyph unicode="&#xa9;" vert-adv-y="2121" />
<glyph unicode="&#xaa;" vert-adv-y="2121" />
<glyph unicode="&#xab;" vert-adv-y="2121" />
<glyph unicode="&#xac;" vert-adv-y="2121" />
<glyph unicode="&#xad;" vert-adv-y="2121" />
<glyph unicode="&#xae;" vert-adv-y="2121" />
<glyph unicode="&#xaf;" vert-adv-y="2121" />
<glyph unicode="&#xb0;" horiz-adv-x="2048" vert-adv-y="2121" d="M266 1294.5q0 100.5 74 174t174 73.5t174 -73.5t74 -174t-74 -173t-174 -72.5t-174 72.5t-74 173zM352 1294.5q0 -67.5 47 -114.5t115 -47t116 47t48 114.5t-48 114.5t-116 47t-115 -47t-47 -114.5z" />
<glyph unicode="&#xb1;" horiz-adv-x="2048" vert-adv-y="2121" d="M395 -2h1260v-139h-1260v139zM395 700v140h553v483h152v-483h553v-140h-553v-512h-152v512h-553z" />
<glyph unicode="&#xb2;" vert-adv-y="2121" />
<glyph unicode="&#xb3;" vert-adv-y="2121" />
<glyph unicode="&#xb4;" vert-adv-y="2121" />
<glyph unicode="&#xb5;" vert-adv-y="2121" />
<glyph unicode="&#xb6;" vert-adv-y="2121" />
<glyph unicode="&#xb7;" horiz-adv-x="2048" vert-adv-y="2121" d="M872 612.5q0 61.5 45.5 106.5t106.5 45t106.5 -45t45.5 -106.5t-45.5 -106.5t-106.5 -45t-106.5 45t-45.5 106.5z" />
<glyph unicode="&#xb8;" vert-adv-y="2121" />
<glyph unicode="&#xb9;" vert-adv-y="2121" />
<glyph unicode="&#xba;" vert-adv-y="2121" />
<glyph unicode="&#xbb;" vert-adv-y="2121" />
<glyph unicode="&#xbc;" vert-adv-y="2121" />
<glyph unicode="&#xbd;" vert-adv-y="2121" />
<glyph unicode="&#xbe;" vert-adv-y="2121" />
<glyph unicode="&#xbf;" vert-adv-y="2121" />
<glyph unicode="&#xc0;" vert-adv-y="2121" />
<glyph unicode="&#xc1;" vert-adv-y="2121" />
<glyph unicode="&#xc2;" vert-adv-y="2121" />
<glyph unicode="&#xc3;" vert-adv-y="2121" />
<glyph unicode="&#xc4;" vert-adv-y="2121" />
<glyph unicode="&#xc5;" vert-adv-y="2121" />
<glyph unicode="&#xc6;" vert-adv-y="2121" />
<glyph unicode="&#xc7;" vert-adv-y="2121" />
<glyph unicode="&#xc8;" vert-adv-y="2121" />
<glyph unicode="&#xc9;" vert-adv-y="2121" />
<glyph unicode="&#xca;" vert-adv-y="2121" />
<glyph unicode="&#xcb;" vert-adv-y="2121" />
<glyph unicode="&#xcc;" vert-adv-y="2121" />
<glyph unicode="&#xcd;" vert-adv-y="2121" />
<glyph unicode="&#xce;" vert-adv-y="2121" />
<glyph unicode="&#xcf;" vert-adv-y="2121" />
<glyph unicode="&#xd0;" vert-adv-y="2121" />
<glyph unicode="&#xd1;" vert-adv-y="2121" />
<glyph unicode="&#xd2;" vert-adv-y="2121" />
<glyph unicode="&#xd3;" vert-adv-y="2121" />
<glyph unicode="&#xd4;" vert-adv-y="2121" />
<glyph unicode="&#xd5;" vert-adv-y="2121" />
<glyph unicode="&#xd6;" vert-adv-y="2121" />
<glyph unicode="&#xd7;" horiz-adv-x="2048" vert-adv-y="2121" d="M393 84l533 530l-533 533l103 102l532 -532l533 532l102 -102l-533 -533l531 -526l-102 -106l-531 530l-530 -530z" />
<glyph unicode="&#xd8;" vert-adv-y="2121" />
<glyph unicode="&#xd9;" vert-adv-y="2121" />
<glyph unicode="&#xda;" vert-adv-y="2121" />
<glyph unicode="&#xdb;" vert-adv-y="2121" />
<glyph unicode="&#xdc;" vert-adv-y="2121" />
<glyph unicode="&#xdd;" vert-adv-y="2121" />
<glyph unicode="&#xde;" vert-adv-y="2121" />
<glyph unicode="&#xdf;" vert-adv-y="2121" />
<glyph unicode="&#xe0;" horiz-adv-x="2048" vert-adv-y="2121" d="M571 274q0 143 138.5 330t398.5 371l174 -121q84 100 117 100t76 -54t43 -95t-27 -90q-80 -156 -98.5 -200t-18.5 -77q0 -92 18.5 -197.5t51.5 -174.5l-201 -62q-57 133 -61 315h-13q-92 -135 -204.5 -227t-173 -92t-140.5 102.5t-80 171.5zM838 264l67 -76 q139 92 271 299q16 177 63 304l-25 18q-287 -188 -376 -545zM877 1313q0 31 23.5 58.5t60 27.5t98.5 -31l409 -229l-22 -54q-367 84 -468 119t-101 109z" />
<glyph unicode="&#xe1;" horiz-adv-x="2048" vert-adv-y="2121" d="M565 274q0 137 157 343t380 358l174 -121q84 100 116.5 100t74.5 -54t42 -94t-24 -91q-76 -145 -96.5 -195.5t-20.5 -81.5q0 -92 18.5 -197.5t51.5 -174.5l-201 -62q-57 133 -61 315h-13q-92 -135 -204.5 -227t-173 -92t-140.5 102.5t-80 171.5zM831 264l68 -76 q139 92 270 299q17 177 64 304l-25 18q-287 -188 -377 -545zM874 1174q0 55 83 90.5t491 140.5l29 -70q-145 -84 -289 -159.5t-178.5 -87t-66.5 -11.5t-50.5 33t-18.5 64z" />
<glyph unicode="&#xe2;" vert-adv-y="2121" />
<glyph unicode="&#xe3;" vert-adv-y="2121" />
<glyph unicode="&#xe4;" vert-adv-y="2121" />
<glyph unicode="&#xe5;" vert-adv-y="2121" />
<glyph unicode="&#xe6;" vert-adv-y="2121" />
<glyph unicode="&#xe7;" vert-adv-y="2121" />
<glyph unicode="&#xe8;" horiz-adv-x="2048" vert-adv-y="2121" d="M647 277.5q0 91.5 51 228.5q88 227 147.5 302t166 123t227.5 48t157 -42t36 -157.5t-34 -173t-139.5 -95.5t-365.5 -91q6 -150 125 -258q188 55 346 168l-4 -64q-2 -37 -24.5 -60.5t-123 -79.5t-190.5 -91t-133 -35q-80 0 -161 93t-81 184.5zM848 1298q0 31 23.5 58.5 t60.5 27.5t98 -30l410 -230l-23 -53q-367 84 -468 119t-101 108zM918 516q129 14 204.5 57.5t75.5 178.5v108l-129 -16q-78 -129 -151 -328z" />
<glyph unicode="&#xe9;" horiz-adv-x="2048" vert-adv-y="2121" d="M647 279.5q0 93.5 53 228.5q86 225 145.5 300t166 123t227.5 48t157 -42t36 -157.5t-34 -173t-139.5 -95.5t-365.5 -91q6 -150 125 -258q188 55 346 168l-4 -64q-2 -41 -28.5 -64.5t-129 -81t-188.5 -89t-125 -31.5q-80 0 -161 93t-81 186.5zM848 1090q0 55 83 91 t490 140l29 -70q-145 -84 -288.5 -159.5t-178.5 -87t-66.5 -11.5t-50 33t-18.5 64zM918 516q129 14 204.5 57.5t75.5 178.5v108l-129 -16q-80 -135 -151 -328z" />
<glyph unicode="&#xea;" horiz-adv-x="2048" vert-adv-y="2121" d="M600 279.5q0 93.5 53 228.5q86 225 145.5 300t166 123t227.5 48t156.5 -42t35.5 -157.5t-33.5 -173t-139 -95.5t-365.5 -91q10 -152 125 -258q188 55 346 168l-4 -64q-2 -41 -29 -64.5t-129 -81t-188 -89t-125 -31.5q-80 0 -161 93t-81 186.5zM754 1116l315 322l315 -322 l-43 -43l-272 170l-272 -170zM870 518q119 16 178.5 41t81 69t21.5 124v108l-129 -16q-88 -156 -152 -326z" />
<glyph unicode="&#xeb;" vert-adv-y="2121" />
<glyph unicode="&#xec;" horiz-adv-x="2048" vert-adv-y="2121" d="M825 6q41 498 187 887l245 61q-164 -379 -188 -884zM848 1251q0 29 21.5 53.5t59.5 24.5t93 -31l371 -206l-19 -50q-328 72 -427 105t-99 104z" />
<glyph unicode="&#xed;" horiz-adv-x="2048" vert-adv-y="2121" d="M842 6q41 498 186 887l246 61q-164 -379 -189 -884zM860 1088.5q0 27.5 21.5 52t191.5 75t318 87.5l24 -66q-258 -147 -354 -192.5t-131 -45.5q-37 0 -53.5 31t-16.5 58.5z" />
<glyph unicode="&#xee;" vert-adv-y="2121" />
<glyph unicode="&#xef;" vert-adv-y="2121" />
<glyph unicode="&#xf0;" vert-adv-y="2121" />
<glyph unicode="&#xf1;" vert-adv-y="2121" />
<glyph unicode="&#xf2;" horiz-adv-x="2048" vert-adv-y="2121" d="M625 307q0 180 116.5 378t286.5 292l70 -72q129 49 171 61.5t66 12.5q43 0 65.5 -58.5t22.5 -164.5q0 -168 -96 -344t-236.5 -294t-225.5 -118t-162.5 105.5t-77.5 201.5zM831 1266q0 31 24 58.5t60.5 27.5t98.5 -31l409 -229l-22 -54q-367 84 -468.5 119t-101.5 109z M858 270q0 -45 6 -82l56 -34q127 96 198.5 229t71.5 264q0 94 -45 205h-45q-111 -113 -176.5 -277.5t-65.5 -304.5z" />
<glyph unicode="&#xf3;" horiz-adv-x="2048" vert-adv-y="2121" d="M674 307q0 180 116.5 378t286.5 292l70 -72q123 47 167 60.5t70 13.5q43 0 66 -58.5t23 -164.5q0 -174 -98.5 -348.5t-243 -291t-223.5 -116.5t-156.5 105.5t-77.5 201.5zM874 1167q0 55 83 91t491 141l29 -70q-145 -84 -289 -159.5t-178.5 -88t-67.5 -12.5t-50.5 34 t-17.5 64zM907 270q0 -47 6 -82l56 -34q127 96 198.5 229t71.5 264q0 94 -45 205h-45q-111 -113 -176.5 -277.5t-65.5 -304.5z" />
<glyph unicode="&#xf4;" vert-adv-y="2121" />
<glyph unicode="&#xf5;" vert-adv-y="2121" />
<glyph unicode="&#xf6;" vert-adv-y="2121" />
<glyph unicode="&#xf7;" horiz-adv-x="2048" vert-adv-y="2121" d="M319 553v127h1405v-127h-1405zM891 198.5q0 53.5 39 92.5t92 39t92 -39t39 -92.5t-39 -92t-92 -38.5t-92 38.5t-39 92zM891 1034q0 53 39 92t92 39t92 -39t39 -92t-39 -92t-92 -39t-92 39t-39 92z" />
<glyph unicode="&#xf8;" vert-adv-y="2121" />
<glyph unicode="&#xf9;" horiz-adv-x="2048" vert-adv-y="2121" d="M578 129q0 33 16 86q78 260 104.5 403.5t34.5 284.5l260 70q-37 -375 -174 -703l60 -65q147 115 234 260t103.5 285.5t32 180.5t43.5 40q55 0 120 -74t65 -145q0 -27 -6.5 -47.5t-42 -81t-56 -125t-20.5 -182t26 -259.5l-227 -61q-12 57 -12 149.5t16 208.5 q-123 -160 -252 -257t-198 -97q-41 0 -84 48t-43 81zM819 1249q0 31 23.5 58.5t60.5 27.5t98 -30l410 -230l-22 -57q-414 98 -492 132t-78 99z" />
<glyph unicode="&#xfa;" horiz-adv-x="2048" vert-adv-y="2121" d="M592 129q0 33 16 86q78 260 104.5 403.5t35.5 284.5l260 70q-37 -375 -174 -703l59 -65q147 115 234 260t103.5 285.5t32 180.5t44.5 40q55 0 119.5 -74t64.5 -145q0 -47 -37 -109q-47 -82 -67.5 -146.5t-20.5 -181t27 -258.5l-228 -61q-12 57 -12 149.5t16 208.5 q-123 -160 -253 -257t-197 -97q-41 0 -84 48t-43 81zM901 1139q0 55 83 91t491 140l28 -70q-145 -84 -288.5 -159.5t-178.5 -87t-66.5 -11.5t-50 33t-18.5 64z" />
<glyph unicode="&#xfb;" vert-adv-y="2121" />
<glyph unicode="&#xfc;" horiz-adv-x="2048" vert-adv-y="2121" d="M557 128q0 34 16 87q78 260 105 403.5t35 284.5l260 70q-37 -375 -174 -703l59 -65q147 115 234.5 260t103.5 285.5t31.5 180.5t44.5 40q55 0 119.5 -74t64.5 -145q0 -27 -6 -47.5t-42 -81t-56.5 -125t-20.5 -182t27 -259.5l-228 -61q-12 61 -12 148t17 210 q-123 -160 -252 -257t-199 -97q-39 0 -83 47t-44 81zM756 1132.5q0 45.5 31.5 77t76.5 31.5q43 0 75 -31.5t32 -75.5t-32 -76t-76 -32t-75.5 30.5t-31.5 76zM1264 1125q0 44 31.5 76t74.5 32t76 -34t33 -78t-32 -73.5t-76 -29.5t-75.5 31.5t-31.5 75.5z" />
<glyph unicode="&#xfd;" vert-adv-y="2121" />
<glyph unicode="&#xfe;" vert-adv-y="2121" />
<glyph unicode="&#xff;" vert-adv-y="2121" />
<glyph unicode="&#x2000;" horiz-adv-x="799" vert-adv-y="0" />
<glyph unicode="&#x2001;" horiz-adv-x="1599" vert-adv-y="0" />
<glyph unicode="&#x2002;" horiz-adv-x="799" vert-adv-y="0" />
<glyph unicode="&#x2003;" horiz-adv-x="1599" vert-adv-y="0" />
<glyph unicode="&#x2004;" horiz-adv-x="533" vert-adv-y="0" />
<glyph unicode="&#x2005;" horiz-adv-x="399" vert-adv-y="0" />
<glyph unicode="&#x2006;" horiz-adv-x="266" vert-adv-y="0" />
<glyph unicode="&#x2007;" horiz-adv-x="266" vert-adv-y="0" />
<glyph unicode="&#x2008;" horiz-adv-x="199" vert-adv-y="0" />
<glyph unicode="&#x2009;" horiz-adv-x="319" vert-adv-y="0" />
<glyph unicode="&#x200a;" horiz-adv-x="88" vert-adv-y="0" />
<glyph unicode="&#x2010;" horiz-adv-x="630" vert-adv-y="2121" d="M78 465q0 78 32.5 107.5t125.5 29.5q41 0 94 -6q88 -10 129 -10q57 0 94 18q2 -33 2 -57q0 -76 -38 -101.5t-114 -25.5q-45 0 -100 8q-61 10 -106 10q-66 0 -117 -20q-2 27 -2 47z" />
<glyph unicode="&#x2011;" horiz-adv-x="630" vert-adv-y="2121" d="M78 465q0 78 32.5 107.5t125.5 29.5q41 0 94 -6q88 -10 129 -10q57 0 94 18q2 -33 2 -57q0 -76 -38 -101.5t-114 -25.5q-45 0 -100 8q-61 10 -106 10q-66 0 -117 -20q-2 27 -2 47z" />
<glyph unicode="&#x2012;" horiz-adv-x="630" vert-adv-y="2121" d="M78 465q0 78 32.5 107.5t125.5 29.5q41 0 94 -6q88 -10 129 -10q57 0 94 18q2 -33 2 -57q0 -76 -38 -101.5t-114 -25.5q-45 0 -100 8q-61 10 -106 10q-66 0 -117 -20q-2 27 -2 47z" />
<glyph unicode="&#x2013;" horiz-adv-x="1177" vert-adv-y="2121" d="M78 465q0 78 70 107.5t269 29.5q88 0 202 -6q189 -10 277 -10q122 0 202 18q4 -33 4 -57q0 -76 -81.5 -101.5t-244.5 -25.5q-97 0 -215 8q-131 10 -228 10q-141 0 -251 -20q-4 27 -4 47z" />
<glyph unicode="&#x2014;" horiz-adv-x="2048" vert-adv-y="2121" d="M0 543v119h2048v-119h-2048z" />
<glyph unicode="&#x2018;" horiz-adv-x="2048" vert-adv-y="2121" d="M1477 1140q0 48 35.5 124.5t127 159.5t119.5 83q13 0 13 -14q0 -20 -29 -63q-82 -127 -82 -187q0 -51 61 -127q12 -14 12.5 -37.5t-18 -45t-43.5 -21.5q-78 0 -137 40t-59 88z" />
<glyph unicode="&#x2019;" horiz-adv-x="2048" vert-adv-y="2121" d="M305 1027q0 17 29 60q82 125 82 187q0 51 -62 127q-12 14 -12 37.5t18.5 45t42.5 21.5q78 0 137.5 -40t59.5 -85q0 -51 -36 -127.5t-127 -159.5t-120 -83q-12 0 -12 17z" />
<glyph unicode="&#x201c;" horiz-adv-x="2048" vert-adv-y="2121" d="M1223 1140q0 48 35.5 124.5t127 159.5t119.5 83q13 0 13 -14q0 -20 -29 -63q-82 -127 -82 -187q0 -51 61 -127q12 -14 12.5 -37.5t-18 -45t-43.5 -21.5q-78 0 -137 40t-59 88zM1559 1140q0 48 35.5 124.5t126.5 159.5t120 83q12 0 12 -14q0 -20 -28 -63 q-82 -127 -82 -187q0 -51 61 -127q12 -14 12.5 -37.5t-18 -45t-43.5 -21.5q-78 0 -137 40t-59 88z" />
<glyph unicode="&#x201d;" horiz-adv-x="2048" vert-adv-y="2121" d="M223.5 1027q-0.5 17 28.5 60q82 125 82 187q0 51 -62 127q-12 14 -12 37.5t18.5 45t43.5 21.5q78 0 137 -40t59 -85q0 -51 -36 -127.5t-127 -159.5t-119 -83q-12 0 -12.5 17zM559 1027q0 17 29 60q82 125 82 187q0 51 -62 127q-12 14 -12 37.5t18.5 45t42.5 21.5 q78 0 137.5 -40t59.5 -85q0 -51 -36 -127.5t-127 -159.5t-120 -83q-12 0 -12 17z" />
<glyph unicode="&#x2026;" horiz-adv-x="2048" vert-adv-y="2121" d="M211 588q0 53 39 92t92 39t92 -39t39 -92t-39 -92t-92 -39t-92 39t-39 92zM891 588q0 53 39 92t92 39t92 -39t39 -92t-39 -92t-92 -39t-92 39t-39 92zM1573 588q0 53 39 92t92 39t92 -39t39 -92t-39 -92t-92 -39t-92 39t-39 92z" />
<glyph unicode="&#x202f;" horiz-adv-x="319" vert-adv-y="0" />
<glyph unicode="&#x205f;" horiz-adv-x="399" vert-adv-y="0" />
<glyph unicode="&#x25fc;" horiz-adv-x="1003" vert-adv-y="2007" d="M0 0v1004h1004v-1004h-1004z" />
</font>
</defs>
</svg>
